<svg width="1446" height="354" viewBox="0 0 1446 354" fill="none" xmlns="http://www.w3.org/2000/svg">
<path fill-rule="evenodd" clip-rule="evenodd" d="M544.939 0C615.098 0 674.96 44.0853 698.335 106.066C741.14 86.8303 789.181 76.0444 839.939 76.0444C845.766 76.0444 851.558 76.1866 857.31 76.4674C886.343 30.5172 937.588 0 995.961 0C1066.66 0 1126.9 44.7643 1149.89 107.495C1166.22 104.068 1183.15 102.267 1200.49 102.267C1335.9 102.267 1445.67 212.036 1445.67 347.444C1445.67 349.636 1445.64 351.822 1445.59 354H0C25.6055 211.164 159.46 102.267 320.738 102.267C344.648 102.267 367.955 104.66 390.395 109.202C412.91 45.5781 473.602 0 544.939 0Z" fill="#FCFDFF"/>
</svg>
