<svg width="876" height="1646" viewBox="0 0 876 1646" fill="none" xmlns="http://www.w3.org/2000/svg">
<path fill-rule="evenodd" clip-rule="evenodd" d="M868.149 738.189C829.027 425.807 648.841 141.208 444.509 1.9554C442.516 0.597063 440.241 -0.0344631 438 0.00144798C435.759 -0.0344631 433.484 0.597063 431.491 1.9554C227.159 141.208 46.9731 425.807 7.85132 738.189C-31.1512 1049.62 70.0503 1388.97 426.628 1639.66C426.879 1640.17 427.173 1640.68 427.511 1641.17C429.95 1644.68 434.03 1646.37 438 1645.93C441.97 1646.37 446.05 1644.68 448.488 1641.17C448.827 1640.68 449.121 1640.17 449.372 1639.66C805.95 1388.97 907.151 1049.62 868.149 738.189ZM457.155 38.6704C450.797 33.9025 444.41 29.2794 438 24.8049C437.827 24.9258 437.654 25.0468 437.48 25.1679C444.092 29.5444 450.651 34.0463 457.155 38.6704ZM468.96 1597.59C458.867 1605.18 448.549 1612.7 438 1620.14C437.476 1619.77 436.953 1619.4 436.43 1619.03C447.518 1612.02 458.36 1604.87 468.96 1597.59Z" fill="#076742"/>
</svg>
