<svg width="8640" height="3087" viewBox="0 0 8640 3087" fill="none" xmlns="http://www.w3.org/2000/svg">
<path fill-rule="evenodd" clip-rule="evenodd" d="M6189.65 2483.78C6349.94 2483.78 6503.13 2453.4 6643.78 2398.09C6864.59 2600.16 7158.7 2723.45 7481.6 2723.45C8167.21 2723.45 8723 2167.65 8723 1482.05C8723 796.445 8167.21 240.653 7481.6 240.653C7321.32 240.653 7168.13 271.03 7027.48 326.342C6806.67 124.273 6512.56 0.986328 6189.65 0.986328C5504.05 0.986328 4948.25 556.779 4948.25 1242.38C4948.25 1927.99 5504.05 2483.78 6189.65 2483.78ZM3491.53 1631.84C3491.53 2317.45 2935.74 2873.24 2250.14 2873.24C1969.48 2873.24 1710.57 2780.1 1502.64 2623.05C1275.1 2905.77 926.187 3086.69 535.022 3086.69C-150.583 3086.69 -706.375 2530.9 -706.375 1845.29C-706.375 1159.69 -150.583 603.897 535.022 603.897C815.683 603.897 1074.59 697.036 1282.52 854.09C1510.06 571.364 1858.97 390.445 2250.14 390.445C2935.74 390.445 3491.53 946.237 3491.53 1631.84Z" fill="#BCC6FF"/>
</svg>
