<svg width="8454" height="3086" viewBox="0 0 8454 3086" fill="none" xmlns="http://www.w3.org/2000/svg">
<path fill-rule="evenodd" clip-rule="evenodd" d="M5920.03 2482.93C6080.31 2482.93 6233.5 2452.55 6374.15 2397.24C6594.96 2599.31 6889.07 2722.6 7211.98 2722.6C7897.58 2722.6 8453.38 2166.8 8453.38 1481.2C8453.38 795.595 7897.58 239.802 7211.98 239.802C7051.69 239.802 6898.5 270.179 6757.85 325.491C6537.04 123.422 6242.93 0.135742 5920.03 0.135742C5234.42 0.135742 4678.63 555.928 4678.63 1241.53C4678.63 1927.14 5234.42 2482.93 5920.03 2482.93ZM3221.91 1630.99C3221.91 2316.59 2666.12 2872.39 1980.51 2872.39C1699.85 2872.39 1440.94 2779.25 1233.01 2622.19C1005.47 2904.92 656.562 3085.84 265.397 3085.84C-420.208 3085.84 -976 2530.05 -976 1844.44C-976 1158.84 -420.208 603.045 265.397 603.045C546.058 603.045 804.965 696.184 1012.9 853.238C1240.44 570.512 1589.35 389.593 1980.51 389.593C2666.12 389.593 3221.91 945.385 3221.91 1630.99Z" fill="#D5D4FF"/>
</svg>
