<svg width="3713" height="2691" viewBox="0 0 3713 2691" fill="none" xmlns="http://www.w3.org/2000/svg">
<path fill-rule="evenodd" clip-rule="evenodd" d="M759.073 181.947C698.355 240.845 666.377 325.479 669.489 391.783C669.519 392.429 669.751 393.019 670.12 393.493C670.475 393.98 670.977 394.365 671.591 394.572C734.468 415.839 824.636 408.428 897.989 366.296C971.118 324.292 1027.6 247.729 1023.82 130.782C1023.89 130.644 1023.95 130.5 1024 130.348C1024.36 129.258 1024.06 128.11 1023.33 127.33C1022.78 126.408 1021.76 125.808 1020.61 125.853C1020.45 125.86 1020.3 125.878 1020.14 125.908C908.771 90.037 819.606 123.228 759.073 181.947ZM675.325 383.136C675.329 385.269 675.368 387.385 675.443 389.482C675.497 389.5 675.551 389.518 675.605 389.535C675.476 387.411 675.383 385.277 675.325 383.136ZM1007.95 128.513C1011.21 129.448 1014.49 130.443 1017.79 131.501C1017.8 131.673 1017.8 131.845 1017.81 132.016C1014.51 130.775 1011.23 129.608 1007.95 128.513Z" fill="#87BC38"/>
<path fill-rule="evenodd" clip-rule="evenodd" d="M457.155 308.89C495.727 384.176 567.312 439.501 631.628 455.911C632.255 456.071 632.887 456.022 633.449 455.807C634.017 455.61 634.533 455.242 634.91 454.716C673.631 400.804 692.907 312.408 674.062 229.942C655.275 147.727 598.573 71.328 485.63 40.7529C485.519 40.6455 485.399 40.5453 485.269 40.4534C484.331 39.7907 483.147 39.7373 482.186 40.2124C481.145 40.4661 480.272 41.2682 479.98 42.3785C479.939 42.5324 479.911 42.6866 479.896 42.8402C413.03 138.861 418.701 233.834 457.155 308.89ZM625.065 447.801C627.107 448.421 629.142 449.002 631.169 449.544C631.202 449.498 631.234 449.451 631.267 449.405C629.198 448.906 627.13 448.371 625.065 447.801ZM478.823 55.2597C480.67 52.4164 482.581 49.5712 484.557 46.7246C484.723 46.7698 484.888 46.8151 485.054 46.8605C482.903 49.6496 480.827 52.4497 478.823 55.2597Z" fill="#87BC38"/>
<path d="M364.277 947.833C493.974 805.351 658.875 530.948 692.225 329.731" stroke="#CC3777" stroke-width="108.192" stroke-linecap="round"/>
<path fill-rule="evenodd" clip-rule="evenodd" d="M2731.2 694.562C2814.28 710.517 2901.94 688.169 2954.47 647.589C2954.98 647.194 2955.33 646.666 2955.51 646.091C2955.71 645.522 2955.73 644.889 2955.55 644.268C2936.91 580.563 2879.12 510.952 2802.53 475.03C2726.18 439.218 2631.07 436.865 2537.44 507.042C2537.29 507.063 2537.13 507.096 2536.98 507.142C2535.88 507.473 2535.11 508.373 2534.89 509.423C2534.45 510.4 2534.55 511.581 2535.24 512.495C2535.34 512.622 2535.44 512.739 2535.55 512.846C2570.05 624.653 2648.38 678.656 2731.2 694.562ZM2944.04 647.768C2945.79 646.541 2947.5 645.295 2949.17 644.031C2949.16 643.977 2949.14 643.923 2949.12 643.869C2947.46 645.192 2945.76 646.492 2944.04 647.768ZM2544.68 521.337C2543.58 518.131 2542.51 514.874 2541.48 511.564C2541.62 511.461 2541.76 511.359 2541.9 511.256C2542.77 514.668 2543.7 518.028 2544.68 521.337Z" fill="#87BC38"/>
<path fill-rule="evenodd" clip-rule="evenodd" d="M2763.66 440.273C2788.58 521.113 2849.47 588.028 2909.96 615.357C2910.55 615.624 2911.18 615.685 2911.77 615.571C2912.36 615.476 2912.93 615.203 2913.4 614.75C2960.89 568.381 2995.22 484.675 2990.98 400.19C2986.76 315.962 2944.18 230.877 2838.27 181.154C2838.18 181.029 2838.07 180.909 2837.96 180.796C2837.15 179.981 2836 179.723 2834.97 180.024C2833.9 180.093 2832.9 180.731 2832.42 181.774C2832.35 181.918 2832.3 182.065 2832.26 182.214C2749.73 265.164 2738.83 359.679 2763.66 440.273ZM2904.9 606.231C2906.8 607.196 2908.71 608.122 2910.61 609.007C2910.65 608.967 2910.69 608.927 2910.73 608.887C2908.78 608.037 2906.84 607.151 2904.9 606.231ZM2829.04 194.258C2831.36 191.779 2833.73 189.309 2836.17 186.849C2836.33 186.922 2836.48 186.995 2836.64 187.069C2834.04 189.442 2831.5 191.839 2829.04 194.258Z" fill="#87BC38"/>
<path fill-rule="evenodd" clip-rule="evenodd" d="M976.843 735.223C1058.97 755.504 1147.69 737.774 1202.26 700C1202.8 699.631 1203.17 699.123 1203.38 698.558C1203.61 698 1203.67 697.369 1203.52 696.739C1188.23 632.146 1134.16 559.606 1059.56 519.725C985.191 479.966 890.332 472.638 793.16 537.819C793.006 537.832 792.851 537.857 792.697 537.895C791.581 538.168 790.764 539.026 790.492 540.063C790.001 541.016 790.033 542.2 790.68 543.149C790.769 543.281 790.867 543.403 790.973 543.516C819.572 656.976 894.969 715.004 976.843 735.223ZM1191.84 699.632C1193.65 698.499 1195.42 697.344 1197.16 696.169C1197.15 696.114 1197.13 696.059 1197.12 696.004C1195.38 697.239 1193.62 698.448 1191.84 699.632ZM799.642 552.473C798.708 549.214 797.814 545.905 796.962 542.547C797.105 542.451 797.248 542.356 797.391 542.26C798.085 545.713 798.836 549.118 799.642 552.473Z" fill="#87BC38"/>
<path fill-rule="evenodd" clip-rule="evenodd" d="M3237.66 502.825C3256.87 585.205 3312.95 656.205 3371.38 687.687C3371.95 687.994 3372.58 688.099 3373.17 688.027C3373.77 687.974 3374.36 687.741 3374.86 687.322C3425.47 644.379 3465.56 563.272 3467.22 478.696C3468.88 394.379 3432.35 306.531 3330.16 249.541C3330.07 249.41 3329.98 249.284 3329.88 249.163C3329.13 248.293 3327.99 247.955 3326.94 248.183C3325.87 248.178 3324.83 248.745 3324.28 249.751C3324.2 249.891 3324.14 250.034 3324.09 250.179C3235.98 327.171 3218.5 420.695 3237.66 502.825ZM3366.98 678.23C3368.81 679.326 3370.64 680.383 3372.48 681.399C3372.52 681.361 3372.56 681.324 3372.61 681.287C3370.72 680.303 3368.84 679.284 3366.98 678.23ZM3320.04 261.97C3322.52 259.658 3325.06 257.36 3327.67 255.076C3327.82 255.16 3327.97 255.244 3328.12 255.328C3325.36 257.514 3322.67 259.728 3320.04 261.97Z" fill="#87BC38"/>
<path fill-rule="evenodd" clip-rule="evenodd" d="M3376.03 359.305C3317.4 420.287 3288.4 505.985 3293.82 572.14C3293.88 572.785 3294.13 573.366 3294.51 573.827C3294.88 574.301 3295.4 574.668 3296.02 574.854C3359.6 593.914 3449.46 583.36 3521.29 538.694C3592.91 494.164 3646.69 415.676 3638.83 298.932C3638.89 298.792 3638.95 298.646 3638.99 298.493C3639.31 297.391 3638.98 296.254 3638.22 295.5C3637.64 294.598 3636.59 294.034 3635.45 294.119C3635.29 294.131 3635.14 294.155 3634.99 294.189C3522.43 262.227 3434.48 298.51 3376.03 359.305ZM3299.35 563.294C3299.43 565.426 3299.54 567.54 3299.69 569.633C3299.75 569.649 3299.8 569.664 3299.86 569.68C3299.65 567.561 3299.49 565.432 3299.35 563.294ZM3622.89 297.219C3626.18 298.039 3629.5 298.92 3632.83 299.861C3632.84 300.033 3632.85 300.204 3632.86 300.376C3629.53 299.25 3626.2 298.198 3622.89 297.219Z" fill="#87BC38"/>
<path d="M2904.65 613.997L3030.27 859.126" stroke="#CC3777" stroke-width="108.192" stroke-linecap="round"/>
<path d="M1748.49 1272.67C2155.92 815.582 2402.16 1389.96 3312.63 730.167" stroke="#DC5C7A" stroke-width="149.744" stroke-linecap="round"/>
<path d="M3355.44 790.202C3158.85 957.142 2757.9 1281.68 2726.78 1244.33" stroke="#DC5C7A" stroke-width="247.744" stroke-linecap="round"/>
<path d="M1406.1 718.228C1434.93 638.641 1393.79 550.747 1314.2 521.913C1234.61 493.079 1146.72 534.222 1117.89 613.809L1406.1 718.228ZM2005.52 2382.95C1878.99 2164.37 1697.09 1813.76 1563.74 1475.46C1496.97 1306.09 1444.13 1144.18 1415.7 1005.89C1385.99 861.444 1388.33 767.274 1406.1 718.228L1117.89 613.809C1069.84 746.414 1083.32 911.468 1115.43 1067.63C1148.81 1229.96 1208.45 1410.05 1278.55 1587.88C1418.92 1943.97 1608.27 2308.57 1740.21 2536.52L2005.52 2382.95Z" fill="#CC3777"/>
<path d="M132 786.343C264.735 1198.34 586.452 1657.4 1350.86 1915.77C1826.61 2076.58 1242.39 2398.66 754.277 2559.46" stroke="#DC5C7A" stroke-width="262.37" stroke-linecap="round"/>
</svg>
