<svg width="1528" height="481" viewBox="0 0 1528 481" fill="none" xmlns="http://www.w3.org/2000/svg">
<path fill-rule="evenodd" clip-rule="evenodd" d="M800.721 0C911.045 0 1005.15 69.4289 1041.74 166.977C1122.35 173.844 1188.9 230.014 1211.11 305.209C1233.35 298.943 1256.81 295.59 1281.06 295.59C1397.97 295.59 1496.67 373.558 1528 480.335H-0.000854492C28.6793 369.518 129.346 287.673 249.129 287.673C264.641 287.673 279.832 289.046 294.588 291.676C322.291 218.386 393.109 166.27 476.099 166.27C503.955 166.27 530.438 172.141 554.381 182.714C586.361 76.9811 684.551 0 800.721 0Z" fill="#E2EDFF"/>
<path fill-rule="evenodd" clip-rule="evenodd" d="M800.721 0C911.045 0 1005.15 69.4289 1041.74 166.977C1122.35 173.844 1188.9 230.014 1211.11 305.209C1233.35 298.943 1256.81 295.59 1281.06 295.59C1397.97 295.59 1496.67 373.558 1528 480.335H-0.000854492C28.6793 369.518 129.346 287.673 249.129 287.673C264.641 287.673 279.832 289.046 294.588 291.676C322.291 218.386 393.109 166.27 476.099 166.27C503.955 166.27 530.438 172.141 554.381 182.714C586.361 76.9811 684.551 0 800.721 0Z" fill="white" fill-opacity="0.9"/>
</svg>
