<svg width="4836" height="2013" viewBox="0 0 4836 2013" fill="none" xmlns="http://www.w3.org/2000/svg">
<rect x="725.697" y="857.733" width="2845.11" height="535.524" fill="#004F49"/>
<rect x="1082.62" y="876.679" width="2866.09" height="539.472" fill="#004F49"/>
<rect x="148.184" y="857.733" width="2845.11" height="535.524" fill="#004F49"/>
<path fill-rule="evenodd" clip-rule="evenodd" d="M2809.68 1038.36C2851.44 1167.26 2992.56 1273.87 3144.45 1317.32C3145.93 1317.75 3147.58 1317.84 3149.18 1317.66C3150.78 1317.51 3152.37 1317.07 3153.73 1316.35C3293.27 1242.26 3409.15 1108.65 3423.19 973.878C3437.19 839.52 3349.97 703.887 3084.56 624.815C3084.36 624.616 3084.12 624.426 3083.86 624.245C3081.97 622.946 3078.98 622.537 3076.17 623.02C3073.32 623.132 3070.49 624.153 3068.9 625.818C3068.68 626.048 3068.5 626.283 3068.34 626.52C2825.17 759.045 2768.05 909.849 2809.68 1038.36ZM3133.8 1302.78C3138.55 1304.31 3143.31 1305.78 3148.08 1307.19C3148.2 1307.13 3148.32 1307.06 3148.43 1307C3143.52 1305.65 3138.65 1304.24 3133.8 1302.78ZM3056.24 645.742C3063.1 641.781 3070.12 637.835 3077.31 633.905C3077.7 634.021 3078.09 634.138 3078.48 634.255C3070.89 638.047 3063.47 641.877 3056.24 645.742Z" fill="#228A35"/>
<path fill-rule="evenodd" clip-rule="evenodd" d="M360.12 384.535C343.32 312.501 294.287 250.418 243.191 222.89C242.692 222.622 242.146 222.53 241.624 222.593C241.1 222.64 240.585 222.843 240.153 223.21C195.896 260.76 160.843 331.68 159.387 405.633C157.935 479.361 189.883 556.175 279.239 606.007C279.311 606.122 279.392 606.233 279.483 606.338C280.138 607.099 281.131 607.394 282.047 607.195C282.984 607.2 283.894 606.704 284.377 605.824C284.444 605.702 284.501 605.577 284.547 605.45C361.59 538.128 376.869 456.35 360.12 384.535ZM247.043 231.159C245.442 230.201 243.839 229.277 242.233 228.389C242.196 228.422 242.158 228.454 242.121 228.487C243.771 229.347 245.412 230.238 247.043 231.159ZM288.084 595.139C285.915 597.161 283.692 599.171 281.414 601.168C281.282 601.095 281.151 601.021 281.02 600.947C283.435 599.036 285.789 597.1 288.084 595.139Z" fill="#076742"/>
<path fill-rule="evenodd" clip-rule="evenodd" d="M536.312 511.328C559.012 440.929 548.958 362.461 519.338 312.548C519.049 312.061 518.628 311.701 518.148 311.487C517.675 311.257 517.128 311.166 516.57 311.257C459.294 320.65 392.722 363.387 353.385 426.027C314.168 488.476 301.99 570.773 352.918 659.51C352.92 659.645 352.933 659.781 352.956 659.919C353.126 660.908 353.825 661.673 354.713 661.974C355.514 662.461 356.549 662.504 357.417 661.998C357.537 661.928 357.649 661.85 357.754 661.765C458.467 643.739 513.682 581.511 536.312 511.328ZM518.381 321.62C517.502 319.974 516.604 318.357 515.685 316.768C515.636 316.777 515.587 316.785 515.538 316.794C516.51 318.381 517.457 319.99 518.381 321.62ZM366.096 654.749C363.196 655.365 360.256 655.943 357.274 656.482C357.199 656.351 357.125 656.22 357.05 656.09C360.105 655.695 363.12 655.248 366.096 654.749Z" fill="#076742"/>
<path fill-rule="evenodd" clip-rule="evenodd" d="M309.328 1067.98C332.028 997.586 321.974 919.117 292.353 869.204C292.064 868.717 291.644 868.357 291.163 868.143C290.69 867.913 290.144 867.822 289.585 867.913C232.31 877.306 165.737 920.043 126.4 982.683C87.1831 1045.13 75.0055 1127.43 125.933 1216.17C125.936 1216.3 125.948 1216.44 125.972 1216.57C126.142 1217.56 126.841 1218.33 127.729 1218.63C128.529 1219.12 129.565 1219.16 130.432 1218.65C130.552 1218.58 130.665 1218.51 130.77 1218.42C231.482 1200.4 286.697 1138.17 309.328 1067.98ZM291.397 878.276C290.518 876.631 289.619 875.013 288.7 873.424C288.652 873.433 288.603 873.442 288.554 873.45C289.525 875.038 290.473 876.647 291.397 878.276ZM139.112 1211.41C136.212 1212.02 133.271 1212.6 130.29 1213.14C130.215 1213.01 130.14 1212.88 130.066 1212.75C133.12 1212.35 136.136 1211.9 139.112 1211.41Z" fill="#076742"/>
<path fill-rule="evenodd" clip-rule="evenodd" d="M617.279 1075.73C617.113 1001.76 583.303 930.24 539.708 891.923C539.283 891.55 538.772 891.337 538.249 891.282C537.728 891.209 537.18 891.291 536.677 891.551C485.108 918.183 434.999 979.401 416.945 1051.13C398.945 1122.64 412.794 1204.67 488.651 1273.33C488.695 1273.46 488.749 1273.58 488.814 1273.71C489.281 1274.6 490.182 1275.11 491.119 1275.12C492.032 1275.33 493.03 1275.06 493.698 1274.31C493.791 1274.2 493.874 1274.09 493.947 1273.98C584.16 1225.72 617.444 1149.47 617.279 1075.73ZM541.602 900.847C540.258 899.553 538.903 898.293 537.539 897.066C537.495 897.089 537.451 897.112 537.407 897.136C538.821 898.345 540.22 899.583 541.602 900.847ZM499.713 1264.73C497.146 1266.21 494.527 1267.67 491.858 1269.1C491.747 1269 491.635 1268.9 491.524 1268.8C494.307 1267.48 497.037 1266.12 499.713 1264.73Z" fill="#076742"/>
<path fill-rule="evenodd" clip-rule="evenodd" d="M976.442 670.08C1007.55 602.973 1007.14 523.864 983.819 470.713C983.592 470.195 983.218 469.786 982.767 469.515C982.326 469.229 981.795 469.072 981.229 469.095C923.236 471.437 851.951 505.743 805.273 563.122C758.738 620.326 736.622 700.525 776.356 794.808C776.341 794.942 776.337 795.079 776.344 795.218C776.392 796.221 776.993 797.065 777.837 797.472C778.573 798.053 779.595 798.222 780.518 797.826C780.645 797.771 780.767 797.707 780.881 797.636C883.04 792.018 945.427 736.983 976.442 670.08ZM981.764 479.601C981.093 477.861 980.397 476.145 979.679 474.457C979.63 474.46 979.58 474.462 979.531 474.465C980.301 476.159 981.046 477.871 981.764 479.601ZM790.016 791.689C787.063 791.947 784.074 792.162 781.048 792.333C780.99 792.194 780.932 792.055 780.874 791.917C783.954 791.897 787.001 791.821 790.016 791.689Z" fill="#228A35"/>
<path fill-rule="evenodd" clip-rule="evenodd" d="M489.669 1098.33C516.022 1029.22 510.088 950.332 483.12 898.938C482.857 898.436 482.456 898.055 481.988 897.815C481.527 897.561 480.987 897.442 480.424 897.504C422.736 903.886 354.017 943.08 311.456 1003.58C269.024 1063.89 252.556 1145.43 298.77 1236.71C298.765 1236.85 298.771 1236.99 298.787 1237.12C298.905 1238.12 299.563 1238.92 300.434 1239.27C301.208 1239.8 302.24 1239.89 303.132 1239.43C303.256 1239.37 303.373 1239.3 303.482 1239.22C405 1226.49 463.396 1167.24 489.669 1098.33ZM481.69 907.947C480.899 906.258 480.086 904.595 479.252 902.961C479.203 902.967 479.153 902.973 479.104 902.979C479.991 904.615 480.853 906.272 481.69 907.947ZM312.18 1232.65C309.251 1233.11 306.285 1233.54 303.279 1233.92C303.211 1233.78 303.143 1233.65 303.076 1233.52C306.147 1233.28 309.181 1232.99 312.18 1232.65Z" fill="#228A35"/>
<path fill-rule="evenodd" clip-rule="evenodd" d="M689.55 1023.58C640.898 967.86 568.459 936.063 510.42 935.746C509.854 935.743 509.328 935.919 508.897 936.22C508.456 936.507 508.097 936.928 507.888 937.454C486.44 991.386 488.785 1070.46 522.218 1136.44C555.549 1202.22 619.819 1255.05 722.112 1257.09C722.228 1257.16 722.352 1257.22 722.482 1257.27C723.417 1257.64 724.433 1257.43 725.148 1256.82C725.978 1256.39 726.549 1255.52 726.562 1254.52C726.563 1254.38 726.555 1254.24 726.536 1254.11C762.955 1158.5 738.053 1079.12 689.55 1023.58ZM517.703 941.239C515.84 941.144 513.991 941.082 512.156 941.051C512.138 941.097 512.12 941.144 512.103 941.19C513.964 941.175 515.831 941.191 517.703 941.239ZM724.818 1243.35C723.853 1246.15 722.834 1248.97 721.759 1251.8C721.609 1251.8 721.459 1251.79 721.308 1251.79C722.543 1248.97 723.713 1246.15 724.818 1243.35Z" fill="#228A35"/>
<path fill-rule="evenodd" clip-rule="evenodd" d="M269.502 794.741C195.726 800.066 126.737 838.782 91.5551 884.944C91.212 885.394 91.0359 885.919 91.0168 886.445C90.9808 886.969 91.1011 887.51 91.3953 887.994C121.56 937.58 186.123 983.296 258.938 996.303C331.531 1009.27 412.397 989.732 475.595 909.271C475.719 909.219 475.841 909.156 475.96 909.083C476.813 908.555 477.261 907.62 477.207 906.684C477.358 905.759 477.011 904.783 476.217 904.168C476.107 904.083 475.992 904.008 475.874 903.942C421.433 817.316 343.052 789.432 269.502 794.741ZM100.325 882.432C99.1282 883.863 97.965 885.303 96.8365 886.75C96.8627 886.792 96.889 886.834 96.9153 886.876C98.0233 885.381 99.1602 883.899 100.325 882.432ZM466.244 898.836C467.902 901.294 469.539 903.804 471.155 906.367C471.062 906.485 470.969 906.603 470.876 906.721C469.366 904.037 467.821 901.409 466.244 898.836Z" fill="#228A35"/>
<path fill-rule="evenodd" clip-rule="evenodd" d="M286.629 574.711C218.477 545.962 139.431 549.139 87.1265 574.297C86.6163 574.542 86.221 574.93 85.9654 575.39C85.6952 575.841 85.5569 576.377 85.5995 576.942C89.9645 634.817 126.737 704.862 185.71 749.509C244.504 794.019 325.426 813.323 418.264 770.323C418.398 770.333 418.536 770.332 418.674 770.321C419.675 770.238 420.498 769.608 420.875 768.75C421.429 767.994 421.563 766.966 421.135 766.058C421.076 765.933 421.008 765.814 420.932 765.702C411.752 663.802 354.573 603.373 286.629 574.711ZM96.0807 576.04C94.3646 576.772 92.6748 577.527 91.0123 578.303C91.0166 578.353 91.0209 578.402 91.0253 578.452C92.6914 577.622 94.3768 576.819 96.0807 576.04ZM414.67 756.78C415.031 759.723 415.35 762.702 415.627 765.72C415.49 765.783 415.353 765.846 415.217 765.908C415.09 762.831 414.907 759.788 414.67 756.78Z" fill="#228A35"/>
<path fill-rule="evenodd" clip-rule="evenodd" d="M489.903 509.156C429.218 466.866 351.239 453.538 294.847 467.272C294.297 467.406 293.829 467.703 293.484 468.099C293.126 468.484 292.879 468.98 292.803 469.541C285.04 527.06 306.445 603.219 354.847 659.151C403.102 714.913 478.242 750.62 577.992 727.862C578.121 727.899 578.255 727.927 578.393 727.945C579.389 728.071 580.326 727.626 580.872 726.865C581.572 726.242 581.917 725.264 581.687 724.287C581.655 724.152 581.613 724.021 581.562 723.896C593.769 622.314 550.404 551.318 489.903 509.156ZM303.243 470.839C301.412 471.198 299.602 471.584 297.814 471.999C297.808 472.048 297.802 472.097 297.796 472.146C299.598 471.682 301.414 471.246 303.243 470.839ZM577.292 713.867C577.033 716.821 576.726 719.802 576.369 722.81C576.222 722.844 576.076 722.877 575.929 722.91C576.445 719.874 576.898 716.859 577.292 713.867Z" fill="#228A35"/>
<path fill-rule="evenodd" clip-rule="evenodd" d="M805.802 542.712C800.477 468.937 761.761 399.948 715.599 364.766C715.149 364.423 714.624 364.247 714.098 364.228C713.574 364.192 713.033 364.312 712.549 364.606C662.963 394.771 617.247 459.334 604.24 532.149C591.273 604.742 610.81 685.608 691.272 748.806C691.324 748.93 691.387 749.052 691.46 749.17C691.988 750.024 692.923 750.471 693.859 750.417C694.784 750.569 695.76 750.222 696.375 749.428C696.46 749.318 696.535 749.203 696.601 749.085C783.227 694.644 811.111 616.263 805.802 542.712ZM718.111 373.536C716.68 372.339 715.24 371.176 713.793 370.047C713.751 370.074 713.709 370.1 713.667 370.126C715.162 371.234 716.644 372.371 718.111 373.536ZM701.707 739.455C699.249 741.113 696.739 742.75 694.176 744.366C694.058 744.273 693.94 744.18 693.822 744.087C696.506 742.576 699.134 741.032 701.707 739.455Z" fill="#228A35"/>
<path fill-rule="evenodd" clip-rule="evenodd" d="M190.533 691.42C116.616 694.167 46.3186 730.452 9.54666 775.358C9.18796 775.796 8.99365 776.314 8.95622 776.839C8.90198 777.362 9.00329 777.907 9.28047 778.4C37.696 829.009 100.625 876.95 172.941 892.491C245.038 907.984 326.536 891.28 392.504 813.073C392.63 813.025 392.754 812.967 392.874 812.898C393.746 812.4 394.226 811.481 394.205 810.544C394.388 809.625 394.075 808.637 393.303 807.995C393.196 807.906 393.084 807.827 392.969 807.757C341.584 719.284 264.224 688.682 190.533 691.42ZM18.3988 773.154C17.1528 774.542 15.9401 775.94 14.7618 777.347C14.7865 777.39 14.8113 777.433 14.8361 777.476C15.9956 776.02 17.1835 774.579 18.3988 773.154ZM383.523 802.318C385.094 804.832 386.642 807.398 388.168 810.016C388.071 810.131 387.973 810.245 387.876 810.36C386.461 807.625 385.009 804.944 383.523 802.318Z" fill="#228A35"/>
<path fill-rule="evenodd" clip-rule="evenodd" d="M655.188 620.683C495.768 629.103 343.351 718.785 263.008 828.579C262.224 829.65 261.793 830.912 261.7 832.185C261.571 833.456 261.776 834.774 262.362 835.965C322.419 958.042 456.947 1072.83 612.483 1108.8C767.546 1144.67 943.644 1102.21 1087.72 910.955C1087.99 910.835 1088.26 910.69 1088.52 910.52C1090.42 909.291 1091.47 907.051 1091.45 904.779C1091.87 902.546 1091.22 900.156 1089.57 898.618C1089.34 898.405 1089.1 898.215 1088.85 898.05C980.174 684.677 814.123 612.29 655.188 620.683ZM282.145 823.023C279.425 826.42 276.778 829.84 274.204 833.279C274.256 833.383 274.309 833.487 274.361 833.59C276.896 830.032 279.491 826.509 282.145 823.023ZM1068.62 885.081C1071.94 891.142 1075.22 897.328 1078.45 903.642C1078.23 903.922 1078.02 904.203 1077.81 904.483C1074.82 897.883 1071.76 891.416 1068.62 885.081Z" fill="#228A35"/>
<path fill-rule="evenodd" clip-rule="evenodd" d="M678.463 530.767C645.59 484.041 592.513 453.769 547.956 448.839C547.522 448.791 547.104 448.883 546.748 449.08C546.387 449.265 546.077 449.559 545.873 449.947C525.044 489.643 520.461 550.573 540.816 603.955C561.108 657.174 606.212 702.94 684.622 712.772C684.706 712.834 684.796 712.889 684.892 712.939C685.581 713.294 686.378 713.218 686.976 712.81C687.649 712.543 688.157 711.924 688.248 711.154C688.261 711.047 688.265 710.942 688.261 710.837C723.956 640.334 711.236 577.349 678.463 530.767ZM553.108 453.646C551.684 453.423 550.268 453.226 548.862 453.054C548.844 453.088 548.827 453.122 548.809 453.156C550.24 453.295 551.673 453.459 553.108 453.646ZM687.811 702.43C686.843 704.506 685.833 706.588 684.779 708.678C684.664 708.663 684.548 708.648 684.433 708.634C685.61 706.566 686.735 704.498 687.811 702.43Z" fill="#8ABB32"/>
<path fill-rule="evenodd" clip-rule="evenodd" d="M527.66 647.32C472.258 661.265 424.975 699.967 404.405 739.798C404.204 740.187 404.141 740.61 404.197 741.012C404.24 741.416 404.404 741.811 404.692 742.14C434.287 775.811 489.528 801.925 546.659 802.053C603.615 802.18 662.505 776.473 699.784 706.795C699.872 706.738 699.956 706.674 700.036 706.602C700.615 706.086 700.83 705.315 700.663 704.611C700.655 703.887 700.259 703.19 699.573 702.829C699.478 702.779 699.381 702.738 699.282 702.704C646.254 644.114 582.894 633.417 527.66 647.32ZM410.739 736.712C410.02 737.961 409.329 739.212 408.664 740.464C408.69 740.492 408.715 740.52 408.741 740.549C409.383 739.263 410.049 737.984 410.739 736.712ZM691.272 700.111C692.863 701.759 694.445 703.448 696.018 705.181C695.963 705.283 695.908 705.386 695.853 705.488C694.344 703.649 692.817 701.857 691.272 700.111Z" fill="#16A537"/>
<path fill-rule="evenodd" clip-rule="evenodd" d="M321.001 876.556C283.617 919.757 267.083 978.58 273.08 1023.01C273.138 1023.44 273.329 1023.82 273.605 1024.12C273.872 1024.43 274.233 1024.66 274.658 1024.76C318.214 1035.37 378.444 1025.07 425.315 992.409C472.044 959.844 505.539 905.008 496.11 826.549C496.15 826.452 496.182 826.351 496.207 826.247C496.384 825.492 496.118 824.737 495.578 824.255C495.155 823.668 494.432 823.324 493.663 823.422C493.556 823.435 493.453 823.457 493.353 823.486C416.308 805.908 358.272 833.487 321.001 876.556ZM276.498 1016.85C276.626 1018.28 276.777 1019.7 276.95 1021.11C276.988 1021.12 277.025 1021.13 277.062 1021.13C276.851 1019.71 276.663 1018.28 276.498 1016.85ZM485.304 825.956C487.552 826.393 489.817 826.87 492.099 827.387C492.113 827.503 492.127 827.618 492.14 827.733C489.85 827.092 487.571 826.5 485.304 825.956Z" fill="#16A537"/>
<path fill-rule="evenodd" clip-rule="evenodd" d="M882.745 750.731C917.818 705.633 931.249 646.025 922.936 601.973C922.855 601.544 922.645 601.171 922.353 600.889C922.07 600.597 921.698 600.386 921.268 600.305C877.217 591.992 817.609 605.424 772.511 640.496C727.55 675.462 696.971 731.976 710.493 809.834C710.459 809.933 710.432 810.035 710.413 810.141C710.275 810.904 710.58 811.644 711.145 812.097C711.598 812.662 712.338 812.967 713.101 812.829C713.207 812.81 713.309 812.783 713.407 812.749C791.266 826.27 847.78 795.692 882.745 750.731ZM919.845 608.305C919.643 606.878 919.417 605.467 919.17 604.071C919.133 604.065 919.095 604.058 919.057 604.051C919.343 605.46 919.605 606.878 919.845 608.305ZM721.315 809.86C719.048 809.541 716.761 809.184 714.455 808.787C714.435 808.673 714.415 808.558 714.396 808.444C716.717 808.964 719.024 809.436 721.315 809.86Z" fill="#8ABB32"/>
<path fill-rule="evenodd" clip-rule="evenodd" d="M3797.64 297.977C3548.94 430.926 3368.7 672.752 3317.74 888.085C3317.25 890.185 3317.45 892.287 3318.2 894.147C3318.89 896.03 3320.14 897.727 3321.92 898.955C3503.87 1024.88 3799.63 1083.99 4073.41 1016.38C4346.35 948.974 4597.7 755.527 4693.04 377.289C4693.39 376.913 4693.72 376.506 4694.02 376.067C4696.17 372.903 4696.28 368.953 4694.64 365.778C4693.74 362.322 4691.01 359.459 4687.3 358.55C4686.78 358.424 4686.26 358.34 4685.75 358.296C4361.81 141.006 4045.58 165.434 3797.64 297.977ZM3344.39 865.738C3342.45 872.578 3340.63 879.395 3338.94 886.185C3339.1 886.29 3339.25 886.396 3339.41 886.502C3340.95 879.576 3342.61 872.654 3344.39 865.738ZM4644.29 355.444C4653.88 361.434 4663.47 367.637 4673.08 374.058C4672.93 374.614 4672.79 375.169 4672.65 375.724C4663.23 368.718 4653.78 361.959 4644.29 355.444Z" fill="#076742"/>
<path fill-rule="evenodd" clip-rule="evenodd" d="M3780.89 983.961C3742.65 920.644 3676.83 876.752 3619.73 866.361C3619.17 866.26 3618.63 866.341 3618.15 866.563C3617.66 866.769 3617.24 867.122 3616.94 867.603C3586.45 916.992 3575.03 995.273 3596.5 1066.06C3617.9 1136.62 3672.02 1199.81 3772.4 1219.59C3772.51 1219.67 3772.62 1219.75 3772.74 1219.83C3773.6 1220.35 3774.63 1220.32 3775.44 1219.85C3776.33 1219.56 3777.05 1218.81 3777.23 1217.82C3777.26 1217.69 3777.27 1217.55 3777.28 1217.42C3829.75 1129.58 3819.01 1047.09 3780.89 983.961ZM3625.95 873.035C3624.13 872.618 3622.32 872.235 3620.52 871.887C3620.49 871.929 3620.47 871.972 3620.44 872.014C3622.28 872.323 3624.11 872.663 3625.95 873.035ZM3777.46 1206.52C3776.02 1209.11 3774.53 1211.71 3772.98 1214.31C3772.83 1214.28 3772.68 1214.25 3772.53 1214.22C3774.24 1211.66 3775.88 1209.09 3777.46 1206.52Z" fill="#076742"/>
<path fill-rule="evenodd" clip-rule="evenodd" d="M3968.38 1037.95C3930.14 974.634 3864.32 930.742 3807.22 920.351C3806.66 920.25 3806.12 920.331 3805.64 920.553C3805.15 920.759 3804.73 921.112 3804.43 921.594C3773.94 970.982 3762.52 1049.26 3783.99 1120.05C3805.39 1190.61 3859.51 1253.8 3959.89 1273.58C3960 1273.66 3960.11 1273.74 3960.23 1273.82C3961.09 1274.34 3962.12 1274.31 3962.93 1273.84C3963.82 1273.55 3964.54 1272.8 3964.72 1271.81C3964.75 1271.68 3964.76 1271.54 3964.77 1271.41C4017.24 1183.57 4006.5 1101.08 3968.38 1037.95ZM3813.44 927.025C3811.62 926.608 3809.81 926.226 3808.01 925.877C3807.98 925.919 3807.96 925.962 3807.93 926.004C3809.77 926.313 3811.6 926.653 3813.44 927.025ZM3964.95 1260.51C3963.51 1263.1 3962.02 1265.7 3960.47 1268.3C3960.32 1268.27 3960.17 1268.24 3960.02 1268.21C3961.73 1265.65 3963.37 1263.08 3964.95 1260.51Z" fill="#076742"/>
<path fill-rule="evenodd" clip-rule="evenodd" d="M2946.93 1159.01C2908.69 1095.7 2842.88 1051.8 2785.77 1041.41C2785.22 1041.31 2784.67 1041.39 2784.19 1041.62C2783.71 1041.82 2783.28 1042.17 2782.98 1042.66C2752.5 1092.04 2741.07 1170.33 2762.54 1241.11C2783.94 1311.68 2838.06 1374.86 2938.45 1394.64C2938.55 1394.73 2938.66 1394.81 2938.78 1394.88C2939.64 1395.4 2940.68 1395.37 2941.48 1394.9C2942.38 1394.62 2943.09 1393.86 2943.28 1392.88C2943.3 1392.74 2943.32 1392.6 2943.32 1392.47C2995.79 1304.63 2985.05 1222.14 2946.93 1159.01ZM2791.99 1048.09C2790.17 1047.67 2788.36 1047.29 2786.56 1046.94C2786.54 1046.98 2786.51 1047.02 2786.49 1047.07C2788.32 1047.38 2790.16 1047.72 2791.99 1048.09ZM2943.5 1381.57C2942.06 1384.16 2940.57 1386.76 2939.02 1389.37C2938.87 1389.34 2938.72 1389.31 2938.58 1389.28C2940.28 1386.71 2941.92 1384.14 2943.5 1381.57Z" fill="#076742"/>
<path fill-rule="evenodd" clip-rule="evenodd" d="M3513.03 471.812C3586.81 466.487 3655.79 427.77 3690.98 381.609C3691.32 381.159 3691.5 380.634 3691.51 380.108C3691.55 379.583 3691.43 379.043 3691.14 378.559C3660.97 328.973 3596.41 283.257 3523.59 270.25C3451 257.282 3370.13 276.82 3306.94 357.281C3306.81 357.334 3306.69 357.397 3306.57 357.47C3305.72 357.998 3305.27 358.933 3305.32 359.869C3305.17 360.794 3305.52 361.77 3306.31 362.385C3306.42 362.47 3306.54 362.545 3306.66 362.61C3361.1 449.237 3439.48 477.12 3513.03 471.812ZM3682.21 384.121C3683.4 382.689 3684.57 381.25 3685.69 379.803C3685.67 379.761 3685.64 379.719 3685.62 379.677C3684.51 381.172 3683.37 382.654 3682.21 384.121ZM3316.29 367.717C3314.63 365.259 3312.99 362.749 3311.38 360.186C3311.47 360.068 3311.56 359.95 3311.66 359.832C3313.17 362.516 3314.71 365.144 3316.29 367.717Z" fill="#076742"/>
<path fill-rule="evenodd" clip-rule="evenodd" d="M3571.27 270.626C3564.99 344.326 3592.44 418.522 3632.53 460.492C3632.92 460.901 3633.41 461.157 3633.92 461.258C3634.44 461.376 3634.99 461.342 3635.51 461.127C3689.21 439.091 3744.46 382.474 3768.7 312.59C3792.86 242.92 3786.22 159.993 3716.63 84.9862C3716.6 84.8552 3716.56 84.725 3716.5 84.5967C3716.11 83.6708 3715.26 83.0825 3714.33 82.9896C3713.44 82.6951 3712.42 82.8855 3711.69 83.5734C3711.59 83.6688 3711.49 83.7703 3711.41 83.8767C3617.34 124.096 3577.53 197.15 3571.27 270.626ZM3631.42 451.437C3632.64 452.843 3633.88 454.217 3635.14 455.558C3635.18 455.539 3635.23 455.519 3635.27 455.5C3633.97 454.172 3632.68 452.817 3631.42 451.437ZM3704.86 92.5893C3707.55 91.3366 3710.28 90.1122 3713.07 88.9169C3713.17 89.0273 3713.27 89.1378 3713.37 89.2483C3710.49 90.3199 3707.65 91.434 3704.86 92.5893Z" fill="#076742"/>
<path fill-rule="evenodd" clip-rule="evenodd" d="M3751.42 276.327C3715.71 341.101 3710.61 420.046 3730.16 474.694C3730.35 475.227 3730.69 475.661 3731.12 475.963C3731.54 476.279 3732.06 476.472 3732.63 476.489C3790.64 478.198 3864.15 448.949 3914.72 394.965C3965.13 341.146 3992.78 262.685 3959.72 165.861C3959.75 165.728 3959.76 165.592 3959.76 165.452C3959.79 164.449 3959.25 163.564 3958.43 163.1C3957.74 162.469 3956.73 162.229 3955.78 162.56C3955.65 162.605 3955.53 162.661 3955.41 162.724C3853.11 161.202 3787.03 211.751 3751.42 276.327ZM3732.83 465.971C3733.38 467.754 3733.95 469.514 3734.55 471.248C3734.6 471.249 3734.65 471.25 3734.7 471.251C3734.05 469.507 3733.42 467.747 3732.83 465.971ZM3945.88 168.019C3948.84 167.968 3951.84 167.962 3954.87 168.002C3954.92 168.145 3954.97 168.287 3955.02 168.43C3951.94 168.234 3948.9 168.098 3945.88 168.019Z" fill="#076742"/>
<path fill-rule="evenodd" clip-rule="evenodd" d="M2920.06 750.751C2986.04 784.184 3065.11 786.53 3119.04 765.082C3119.57 764.872 3119.99 764.513 3120.28 764.072C3120.58 763.641 3120.75 763.116 3120.75 762.55C3120.43 704.51 3088.64 632.071 3032.92 583.42C2977.38 534.916 2898 510.014 2802.39 546.434C2802.25 546.415 2802.12 546.406 2801.98 546.408C2800.97 546.421 2800.11 546.991 2799.67 547.821C2799.07 548.536 2798.86 549.552 2799.22 550.488C2799.28 550.617 2799.33 550.741 2799.4 550.858C2801.45 653.15 2854.28 717.42 2920.06 750.751ZM3110.23 762.718C3112 762.107 3113.73 761.473 3115.45 760.814C3115.45 760.764 3115.44 760.714 3115.44 760.665C3113.72 761.376 3111.99 762.06 3110.23 762.718ZM2805.03 560.195C2804.87 557.234 2804.76 554.239 2804.7 551.21C2804.84 551.157 2804.98 551.103 2805.12 551.05C2805.03 554.129 2805 557.177 2805.03 560.195Z" fill="#228A35"/>
<path fill-rule="evenodd" clip-rule="evenodd" d="M3027.42 586.612C2999.87 655.255 3004.42 734.234 3030.49 786.092C3030.74 786.597 3031.14 786.986 3031.6 787.233C3032.06 787.496 3032.6 787.625 3033.16 787.572C3090.95 782.198 3160.34 744.209 3203.95 684.465C3247.43 624.904 3265.32 543.657 3220.71 451.584C3220.71 451.449 3220.71 451.312 3220.7 451.173C3220.6 450.175 3219.95 449.362 3219.09 449.001C3218.32 448.459 3217.29 448.343 3216.39 448.787C3216.27 448.849 3216.15 448.919 3216.04 448.997C3114.31 459.953 3054.89 518.178 3027.42 586.612ZM3032.08 777.108C3032.84 778.811 3033.62 780.488 3034.43 782.136C3034.48 782.131 3034.53 782.126 3034.58 782.121C3033.72 780.47 3032.88 778.798 3032.08 777.108ZM3207.23 455.413C3210.16 455.001 3213.14 454.63 3216.15 454.301C3216.21 454.436 3216.28 454.572 3216.35 454.707C3213.27 454.888 3210.23 455.124 3207.23 455.413Z" fill="#228A35"/>
<path fill-rule="evenodd" clip-rule="evenodd" d="M3366.17 451.179C3338.62 519.822 3343.17 598.801 3369.24 650.658C3369.49 651.164 3369.89 651.552 3370.35 651.8C3370.81 652.062 3371.35 652.191 3371.91 652.139C3429.7 646.764 3499.09 608.775 3542.7 549.032C3586.18 489.47 3604.07 408.224 3559.46 316.15C3559.46 316.015 3559.46 315.878 3559.45 315.74C3559.35 314.741 3558.7 313.929 3557.84 313.567C3557.07 313.026 3556.04 312.91 3555.14 313.354C3555.02 313.415 3554.9 313.485 3554.79 313.563C3453.06 324.52 3393.64 382.745 3366.17 451.179ZM3370.83 641.675C3371.59 643.378 3372.37 645.054 3373.18 646.703C3373.23 646.698 3373.28 646.693 3373.33 646.687C3372.47 645.036 3371.63 643.365 3370.83 641.675ZM3545.98 319.98C3548.91 319.567 3551.89 319.196 3554.9 318.867C3554.96 319.003 3555.03 319.138 3555.1 319.274C3552.02 319.454 3548.98 319.69 3545.98 319.98Z" fill="#228A35"/>
<path fill-rule="evenodd" clip-rule="evenodd" d="M3441.26 888.866C3512.04 910.334 3590.32 898.912 3639.71 868.425C3640.19 868.127 3640.55 867.7 3640.75 867.217C3640.97 866.74 3641.05 866.192 3640.95 865.635C3630.56 808.532 3586.67 742.715 3523.35 704.477C3460.23 666.356 3377.73 655.617 3289.9 708.085C3289.76 708.09 3289.63 708.105 3289.49 708.131C3288.5 708.318 3287.75 709.03 3287.47 709.923C3286.99 710.732 3286.97 711.769 3287.49 712.627C3287.56 712.746 3287.64 712.857 3287.73 712.96C3307.51 813.343 3370.69 867.464 3441.26 888.866ZM3630.62 867.627C3632.25 866.719 3633.86 865.792 3635.43 864.846C3635.42 864.797 3635.41 864.749 3635.4 864.7C3633.83 865.699 3632.24 866.675 3630.62 867.627ZM3294.89 721.179C3294.22 718.29 3293.59 715.36 3293 712.388C3293.13 712.311 3293.26 712.234 3293.39 712.158C3293.84 715.205 3294.34 718.212 3294.89 721.179Z" fill="#228A35"/>
<path fill-rule="evenodd" clip-rule="evenodd" d="M3337.81 1279.73C3378.23 1341.67 3445.54 1383.24 3502.97 1391.63C3503.53 1391.72 3504.07 1391.62 3504.54 1391.38C3505.02 1391.15 3505.43 1390.79 3505.71 1390.3C3534.46 1339.87 3543.14 1261.24 3519.22 1191.25C3495.37 1121.47 3439.07 1060.22 3338.06 1043.95C3337.95 1043.87 3337.84 1043.79 3337.72 1043.72C3336.84 1043.23 3335.81 1043.3 3335.02 1043.8C3334.13 1044.11 3333.45 1044.89 3333.3 1045.88C3333.27 1046.02 3333.26 1046.16 3333.26 1046.29C3283.89 1135.9 3297.5 1217.98 3337.81 1279.73ZM3496.52 1385.18C3498.35 1385.53 3500.18 1385.85 3501.99 1386.14C3502.01 1386.1 3502.04 1386.05 3502.06 1386.01C3500.22 1385.77 3498.37 1385.49 3496.52 1385.18ZM3333.47 1057.19C3334.81 1054.55 3336.21 1051.9 3337.67 1049.24C3337.82 1049.27 3337.97 1049.29 3338.12 1049.32C3336.5 1051.94 3334.95 1054.56 3333.47 1057.19Z" fill="#228A35"/>
<path fill-rule="evenodd" clip-rule="evenodd" d="M3098.07 1236.27C3094.14 1314.57 3125.96 1392.15 3169.98 1435.12C3170.4 1435.54 3170.93 1435.8 3171.49 1435.88C3172.03 1435.99 3172.62 1435.93 3173.16 1435.69C3229.22 1410.36 3285.66 1348.34 3308.75 1273.42C3331.77 1198.73 3321.66 1111.13 3245.17 1034.26C3245.14 1034.12 3245.09 1033.98 3245.02 1033.85C3244.58 1032.88 3243.65 1032.29 3242.66 1032.23C3241.71 1031.95 3240.64 1032.19 3239.89 1032.94C3239.78 1033.05 3239.69 1033.16 3239.6 1033.27C3141.44 1079.36 3101.98 1158.21 3098.07 1236.27ZM3168.47 1425.57C3169.82 1427.02 3171.18 1428.43 3172.56 1429.8C3172.61 1429.78 3172.65 1429.76 3172.7 1429.73C3171.27 1428.38 3169.86 1426.99 3168.47 1425.57ZM3232.99 1042.74C3235.79 1041.32 3238.64 1039.92 3241.55 1038.55C3241.66 1038.66 3241.77 1038.78 3241.88 1038.89C3238.86 1040.13 3235.9 1041.42 3232.99 1042.74Z" fill="#228A35"/>
<path fill-rule="evenodd" clip-rule="evenodd" d="M3531.22 855.184C3445.01 817.034 3344.22 819.324 3277.01 850.218C3276.35 850.519 3275.84 851.005 3275.51 851.585C3275.15 852.154 3274.96 852.834 3275 853.554C3279.28 927.4 3324.58 1017.47 3398.73 1075.68C3472.66 1133.7 3575.35 1160.1 3694.6 1107.37C3694.78 1107.39 3694.95 1107.39 3695.13 1107.38C3696.4 1107.29 3697.47 1106.51 3697.97 1105.42C3698.69 1104.47 3698.88 1103.17 3698.36 1102C3698.29 1101.84 3698.2 1101.69 3698.11 1101.54C3688.68 971.491 3617.16 893.217 3531.22 855.184ZM3288.38 852.639C3286.18 853.533 3284.01 854.457 3281.87 855.41C3281.88 855.473 3281.88 855.536 3281.89 855.599C3284.03 854.58 3286.19 853.593 3288.38 852.639ZM3690.33 1090.03C3690.72 1093.79 3691.06 1097.6 3691.35 1101.45C3691.17 1101.52 3691 1101.6 3690.82 1101.68C3690.73 1097.75 3690.56 1093.87 3690.33 1090.03Z" fill="#228A35"/>
<path fill-rule="evenodd" clip-rule="evenodd" d="M3577.43 552.884C3492.33 571.171 3418.28 627.584 3384.85 687.136C3384.52 687.717 3384.4 688.357 3384.47 688.973C3384.51 689.59 3384.74 690.201 3385.16 690.716C3428.43 743.557 3511.15 786.254 3598.13 789.486C3684.84 792.709 3775.87 756.699 3836.34 652.591C3836.47 652.509 3836.61 652.416 3836.73 652.311C3837.64 651.556 3838.01 650.393 3837.79 649.312C3837.82 648.209 3837.25 647.128 3836.23 646.542C3836.08 646.461 3835.94 646.392 3835.79 646.336C3758.17 554.309 3662.26 534.653 3577.43 552.884ZM3394.65 682.773C3393.49 684.637 3392.37 686.505 3391.3 688.375C3391.33 688.42 3391.37 688.465 3391.41 688.509C3392.46 686.586 3393.54 684.673 3394.65 682.773ZM3823.73 641.962C3826.07 644.555 3828.39 647.212 3830.69 649.933C3830.6 650.086 3830.51 650.239 3830.42 650.392C3828.22 647.512 3825.99 644.702 3823.73 641.962Z" fill="#228A35"/>
<path fill-rule="evenodd" clip-rule="evenodd" d="M3334.97 500.746C3302.4 434.337 3240.65 384.875 3184.67 369.547C3184.13 369.398 3183.58 369.431 3183.08 369.61C3182.58 369.774 3182.13 370.088 3181.79 370.542C3147.11 417.085 3128.91 494.073 3144.13 566.458C3159.3 638.623 3207.71 706.281 3305.98 734.736C3306.08 734.831 3306.18 734.921 3306.29 735.003C3307.1 735.597 3308.14 735.662 3308.99 735.261C3309.9 735.055 3310.67 734.367 3310.95 733.401C3310.99 733.267 3311.01 733.133 3311.03 732.999C3370.95 650.071 3367.44 566.952 3334.97 500.746ZM3190.29 376.738C3188.51 376.164 3186.74 375.625 3184.98 375.121C3184.95 375.161 3184.92 375.201 3184.89 375.241C3186.69 375.708 3188.49 376.207 3190.29 376.738ZM3312.16 722.157C3310.5 724.615 3308.78 727.073 3307.01 729.531C3306.87 729.489 3306.72 729.447 3306.58 729.405C3308.5 726.999 3310.36 724.583 3312.16 722.157Z" fill="#8ABB32"/>
<path fill-rule="evenodd" clip-rule="evenodd" d="M3218.78 935.505C3169.41 990.584 3146.68 1066.36 3153.44 1124C3153.5 1124.57 3153.74 1125.07 3154.09 1125.46C3154.43 1125.86 3154.89 1126.16 3155.44 1126.31C3211.59 1141.02 3289.79 1129.06 3351.2 1087.83C3412.43 1046.74 3457.02 976.506 3446.59 874.727C3446.65 874.603 3446.69 874.473 3446.72 874.338C3446.97 873.365 3446.64 872.381 3445.95 871.746C3445.42 870.975 3444.49 870.514 3443.49 870.624C3443.36 870.639 3443.22 870.664 3443.09 870.699C3343.75 846.204 3268 880.594 3218.78 935.505ZM3158 1116.1C3158.14 1117.97 3158.3 1119.81 3158.49 1121.63C3158.54 1121.65 3158.59 1121.66 3158.64 1121.67C3158.39 1119.82 3158.18 1117.97 3158 1116.1ZM3432.62 873.716C3435.52 874.332 3438.44 875.001 3441.38 875.722C3441.4 875.871 3441.41 876.021 3441.43 876.17C3438.48 875.289 3435.54 874.471 3432.62 873.716Z" fill="#21A939"/>
<path fill-rule="evenodd" clip-rule="evenodd" d="M3309.9 543.412C3260.53 598.491 3237.8 674.265 3244.56 731.911C3244.62 732.473 3244.86 732.973 3245.21 733.364C3245.55 733.767 3246.01 734.072 3246.56 734.216C3302.7 748.931 3380.9 736.966 3442.32 695.742C3503.55 654.642 3548.14 584.414 3537.71 482.634C3537.76 482.51 3537.81 482.38 3537.84 482.245C3538.09 481.272 3537.76 480.289 3537.07 479.653C3536.54 478.883 3535.61 478.421 3534.61 478.531C3534.48 478.546 3534.34 478.572 3534.21 478.607C3434.87 454.111 3359.12 488.501 3309.9 543.412ZM3249.12 724.012C3249.25 725.873 3249.42 727.716 3249.61 729.541C3249.66 729.553 3249.71 729.565 3249.76 729.577C3249.51 727.732 3249.3 725.876 3249.12 724.012ZM3523.74 481.623C3526.64 482.24 3529.56 482.908 3532.5 483.629C3532.52 483.778 3532.53 483.928 3532.55 484.078C3529.59 483.196 3526.66 482.378 3523.74 481.623Z" fill="#21A939"/>
<path fill-rule="evenodd" clip-rule="evenodd" d="M3427.88 853.19C3501.58 859.472 3575.78 832.025 3617.75 791.935C3618.16 791.544 3618.41 791.053 3618.52 790.537C3618.63 790.024 3618.6 789.472 3618.38 788.948C3596.35 735.253 3539.73 680 3469.85 655.763C3400.18 631.599 3317.25 638.246 3242.24 707.83C3242.11 707.862 3241.98 707.905 3241.85 707.959C3240.93 708.347 3240.34 709.201 3240.25 710.133C3239.95 711.023 3240.14 712.042 3240.83 712.773C3240.93 712.874 3241.03 712.967 3241.13 713.05C3281.35 807.126 3354.41 846.928 3427.88 853.19ZM3608.69 793.044C3610.1 791.818 3611.47 790.578 3612.81 789.325C3612.8 789.28 3612.78 789.234 3612.76 789.188C3611.43 790.492 3610.07 791.777 3608.69 793.044ZM3249.85 719.6C3248.59 716.913 3247.37 714.177 3246.17 711.393C3246.28 711.291 3246.39 711.189 3246.5 711.087C3247.58 713.974 3248.69 716.812 3249.85 719.6Z" fill="#21A939"/>
<path fill-rule="evenodd" clip-rule="evenodd" d="M3317.59 1073.42C3245.78 1055.68 3168.2 1071.19 3120.48 1104.22C3120.01 1104.54 3119.68 1104.99 3119.5 1105.48C3119.31 1105.97 3119.25 1106.52 3119.38 1107.07C3132.75 1163.55 3180.03 1226.98 3245.26 1261.85C3310.29 1296.62 3393.24 1303.02 3478.2 1246.03C3478.34 1246.02 3478.47 1246 3478.61 1245.96C3479.58 1245.72 3480.3 1244.97 3480.54 1244.07C3480.97 1243.23 3480.94 1242.2 3480.37 1241.37C3480.29 1241.25 3480.21 1241.15 3480.12 1241.05C3455.11 1141.84 3389.18 1091.1 3317.59 1073.42ZM3129.59 1104.54C3128.01 1105.53 3126.46 1106.54 3124.94 1107.57C3124.95 1107.62 3124.97 1107.66 3124.98 1107.71C3126.49 1106.63 3128.03 1105.57 3129.59 1104.54ZM3472.54 1233.22C3473.35 1236.07 3474.13 1238.96 3474.88 1241.9C3474.75 1241.98 3474.63 1242.06 3474.5 1242.15C3473.9 1239.13 3473.24 1236.15 3472.54 1233.22Z" fill="#87BC38"/>
<path fill-rule="evenodd" clip-rule="evenodd" d="M3758.56 318.797C3718.27 372.515 3703.71 442.84 3714.38 494.438C3714.49 494.942 3714.74 495.375 3715.09 495.701C3715.43 496.038 3715.87 496.278 3716.38 496.364C3768.32 505.23 3838.09 488.222 3890.37 446.081C3942.49 404.068 3977.27 337.027 3959.78 245.806C3959.82 245.69 3959.85 245.569 3959.87 245.444C3960.01 244.545 3959.64 243.681 3958.97 243.161C3958.42 242.506 3957.55 242.163 3956.65 242.341C3956.53 242.365 3956.41 242.399 3956.29 242.441C3864.52 228.148 3798.73 265.242 3758.56 318.797ZM3717.89 486.934C3718.15 488.606 3718.45 490.26 3718.77 491.895C3718.81 491.902 3718.85 491.91 3718.9 491.917C3718.53 490.267 3718.2 488.606 3717.89 486.934ZM3947.06 245.998C3949.73 246.326 3952.43 246.699 3955.14 247.118C3955.17 247.252 3955.2 247.387 3955.22 247.521C3952.48 246.957 3949.76 246.449 3947.06 245.998Z" fill="#22A136"/>
<path d="M2782.74 1382.98L1056.57 1280.84L940.375 1208.42L925.783 943.606L1173.31 742.561L1583.5 777.69H1912.63L2782.74 702.028L3021.62 1027.91L2782.74 1382.98Z" fill="#87BC38"/>
<path fill-rule="evenodd" clip-rule="evenodd" d="M968.925 1176.83C1022.91 1126.26 1052.16 1052.76 1050.45 994.745C1050.43 994.179 1050.24 993.66 1049.92 993.24C1049.62 992.809 1049.19 992.465 1048.65 992.274C994.006 972.721 915.06 977.825 850.287 1013.54C785.711 1049.15 735.162 1115.22 736.684 1217.52C736.62 1217.64 736.565 1217.77 736.519 1217.9C736.188 1218.85 736.429 1219.85 737.06 1220.55C737.524 1221.36 738.408 1221.9 739.412 1221.88C739.551 1221.88 739.688 1221.86 739.82 1221.84C836.645 1254.9 915.106 1227.24 968.925 1176.83ZM1045.21 1002.22C1045.24 1000.35 1045.24 998.5 1045.21 996.665C1045.16 996.649 1045.11 996.633 1045.07 996.616C1045.15 998.476 1045.2 1000.34 1045.21 1002.22ZM750.518 1219.75C747.683 1218.88 744.831 1217.96 741.962 1216.99C741.96 1216.84 741.958 1216.69 741.956 1216.53C744.819 1217.67 747.673 1218.74 750.518 1219.75Z" fill="#87BC38"/>
<path fill-rule="evenodd" clip-rule="evenodd" d="M1036.98 1334.82C1068.09 1267.72 1067.68 1188.61 1044.36 1135.46C1044.13 1134.94 1043.76 1134.53 1043.31 1134.26C1042.87 1133.97 1042.34 1133.82 1041.77 1133.84C983.777 1136.18 912.492 1170.49 865.814 1227.87C819.279 1285.07 797.163 1365.27 836.897 1459.55C836.882 1459.69 836.878 1459.82 836.885 1459.96C836.933 1460.96 837.534 1461.81 838.378 1462.21C839.114 1462.8 840.136 1462.97 841.059 1462.57C841.186 1462.51 841.308 1462.45 841.422 1462.38C943.581 1456.76 1005.97 1401.73 1036.98 1334.82ZM1042.3 1144.34C1041.63 1142.6 1040.94 1140.89 1040.22 1139.2C1040.17 1139.2 1040.12 1139.21 1040.07 1139.21C1040.84 1140.9 1041.59 1142.61 1042.3 1144.34ZM850.557 1456.43C847.604 1456.69 844.615 1456.91 841.589 1457.08C841.531 1456.94 841.473 1456.8 841.415 1456.66C844.495 1456.64 847.542 1456.56 850.557 1456.43Z" fill="#87BC38"/>
<path fill-rule="evenodd" clip-rule="evenodd" d="M853.855 1024.87C925.89 1008.07 987.972 959.036 1015.5 907.939C1015.77 907.44 1015.86 906.894 1015.8 906.372C1015.75 905.848 1015.55 905.333 1015.18 904.901C977.631 860.644 906.711 825.591 832.758 824.135C759.03 822.683 682.216 854.631 632.383 943.988C632.268 944.059 632.158 944.14 632.052 944.231C631.292 944.886 630.996 945.88 631.196 946.795C631.191 947.732 631.687 948.643 632.567 949.125C632.689 949.192 632.814 949.249 632.941 949.295C700.263 1026.34 782.041 1041.62 853.855 1024.87ZM1007.23 911.791C1008.19 910.19 1009.11 908.587 1010 906.981C1009.97 906.944 1009.94 906.906 1009.9 906.869C1009.04 908.519 1008.15 910.16 1007.23 911.791ZM643.251 952.832C641.229 950.663 639.219 948.44 637.222 946.162C637.296 946.031 637.369 945.899 637.443 945.768C639.354 948.183 641.291 950.537 643.251 952.832Z" fill="#87BC38"/>
<path fill-rule="evenodd" clip-rule="evenodd" d="M925.681 897.462C991.068 932.042 1070.09 935.767 1124.39 915.263C1124.92 915.063 1125.35 914.711 1125.64 914.276C1125.95 913.85 1126.13 913.328 1126.14 912.762C1126.84 854.725 1096.31 781.743 1041.45 732.126C986.76 682.66 907.829 656.377 811.596 691.122C811.463 691.101 811.326 691.09 811.187 691.089C810.183 691.084 809.308 691.64 808.858 692.462C808.239 693.166 808.017 694.179 808.364 695.12C808.412 695.251 808.47 695.375 808.535 695.493C808.799 797.806 860.494 862.988 925.681 897.462ZM1115.62 912.746C1117.39 912.166 1119.14 911.562 1120.87 910.933C1120.87 910.884 1120.87 910.834 1120.87 910.784C1119.13 911.465 1117.39 912.119 1115.62 912.746ZM813.996 704.927C813.893 701.964 813.834 698.968 813.822 695.938C813.964 695.887 814.105 695.836 814.247 695.786C814.105 698.862 814.022 701.909 813.996 704.927Z" fill="#87BC38"/>
<path fill-rule="evenodd" clip-rule="evenodd" d="M1002.64 744.626C1034.05 811.593 1094.92 862.125 1150.62 878.427C1151.17 878.586 1151.72 878.563 1152.22 878.392C1152.72 878.238 1153.18 877.932 1153.53 877.484C1189.01 831.553 1208.55 754.894 1194.6 682.254C1180.69 609.836 1133.47 541.343 1035.71 511.177C1035.61 511.08 1035.51 510.989 1035.4 510.904C1034.6 510.297 1033.57 510.214 1032.72 510.6C1031.8 510.79 1031.01 511.464 1030.72 512.425C1030.68 512.559 1030.65 512.693 1030.63 512.826C969.27 594.695 971.328 677.863 1002.64 744.626ZM1145.14 871.14C1146.9 871.744 1148.66 872.315 1150.42 872.85C1150.45 872.81 1150.48 872.77 1150.51 872.731C1148.71 872.232 1146.92 871.702 1145.14 871.14ZM1029.32 523.647C1031.02 521.218 1032.77 518.79 1034.59 516.363C1034.73 516.407 1034.87 516.452 1035.02 516.497C1033.05 518.869 1031.15 521.252 1029.32 523.647Z" fill="#87BC38"/>
<path fill-rule="evenodd" clip-rule="evenodd" d="M1150.97 650.727C1124.62 719.841 1130.55 798.728 1157.52 850.123C1157.79 850.624 1158.19 851.006 1158.65 851.245C1159.12 851.5 1159.66 851.619 1160.22 851.557C1217.91 845.174 1286.63 805.98 1329.19 745.485C1371.62 685.174 1388.09 603.627 1341.87 512.346C1341.88 512.211 1341.87 512.074 1341.86 511.936C1341.74 510.939 1341.08 510.138 1340.21 509.792C1339.43 509.264 1338.4 509.166 1337.51 509.626C1337.39 509.689 1337.27 509.761 1337.16 509.841C1235.64 522.571 1177.25 581.824 1150.97 650.727ZM1158.95 841.113C1159.74 842.803 1160.56 844.465 1161.39 846.1C1161.44 846.094 1161.49 846.088 1161.54 846.082C1160.65 844.445 1159.79 842.789 1158.95 841.113ZM1328.46 516.411C1331.39 515.947 1334.36 515.524 1337.36 515.142C1337.43 515.277 1337.5 515.411 1337.57 515.545C1334.5 515.78 1331.46 516.068 1328.46 516.411Z" fill="#87BC38"/>
<path fill-rule="evenodd" clip-rule="evenodd" d="M1425.56 850.199C1499 859.049 1574.11 834.207 1617.45 795.607C1617.87 795.23 1618.15 794.749 1618.27 794.236C1618.4 793.728 1618.39 793.175 1618.19 792.644C1598.04 738.213 1543.39 681.018 1474.39 654.356C1405.61 627.775 1322.5 631.524 1245.11 698.448C1244.98 698.476 1244.85 698.514 1244.72 698.564C1243.78 698.919 1243.16 699.751 1243.03 700.68C1242.71 701.559 1242.86 702.584 1243.52 703.339C1243.62 703.443 1243.71 703.539 1243.82 703.626C1280.73 799.048 1352.35 841.376 1425.56 850.199ZM1608.36 796.399C1609.81 795.223 1611.23 794.031 1612.61 792.827C1612.59 792.78 1612.58 792.734 1612.56 792.688C1611.19 793.944 1609.79 795.181 1608.36 796.399ZM1252.3 710.476C1251.14 707.747 1250.01 704.97 1248.91 702.146C1249.03 702.048 1249.14 701.95 1249.25 701.852C1250.23 704.775 1251.24 707.649 1252.3 710.476Z" fill="#87BC38"/>
<path fill-rule="evenodd" clip-rule="evenodd" d="M1536.92 779.457C1584.59 836.012 1656.47 869.068 1714.49 870.398C1715.06 870.411 1715.59 870.245 1716.02 869.952C1716.47 869.672 1716.83 869.257 1717.05 868.735C1739.44 815.186 1738.47 736.081 1706.2 669.527C1674.02 603.176 1610.68 549.238 1508.44 545.404C1508.32 545.335 1508.2 545.273 1508.07 545.22C1507.14 544.84 1506.13 545.027 1505.4 545.621C1504.56 546.042 1503.98 546.897 1503.95 547.901C1503.94 548.04 1503.95 548.177 1503.97 548.311C1465.88 643.272 1489.4 723.073 1536.92 779.457ZM1707.31 864.78C1709.17 864.907 1711.01 865.002 1712.85 865.064C1712.87 865.018 1712.89 864.972 1712.9 864.926C1711.04 864.909 1709.18 864.86 1707.31 864.78ZM1505.49 559.103C1506.51 556.317 1507.58 553.517 1508.7 550.703C1508.85 550.709 1509 550.715 1509.15 550.721C1507.87 553.521 1506.65 556.315 1505.49 559.103Z" fill="#87BC38"/>
<path fill-rule="evenodd" clip-rule="evenodd" d="M1638.56 654.336C1665.22 723.331 1722.41 777.986 1776.84 798.135C1777.38 798.331 1777.93 798.346 1778.44 798.211C1778.95 798.092 1779.43 797.819 1779.81 797.396C1818.41 754.052 1843.25 678.943 1834.4 605.507C1825.58 532.295 1783.25 460.675 1687.83 423.763C1687.74 423.659 1687.64 423.561 1687.54 423.47C1686.79 422.808 1685.76 422.653 1684.88 422.978C1683.95 423.104 1683.12 423.721 1682.76 424.66C1682.72 424.79 1682.68 424.922 1682.65 425.054C1615.72 502.443 1611.98 585.552 1638.56 654.336ZM1771.88 790.482C1773.6 791.208 1775.31 791.9 1777.03 792.556C1777.06 792.519 1777.09 792.481 1777.13 792.444C1775.37 791.821 1773.62 791.167 1771.88 790.482ZM1680.58 435.756C1682.45 433.452 1684.37 431.153 1686.35 428.858C1686.49 428.912 1686.63 428.967 1686.77 429.022C1684.64 431.25 1682.58 433.496 1680.58 435.756Z" fill="#87BC38"/>
<path fill-rule="evenodd" clip-rule="evenodd" d="M1788.56 691.492C1759.81 759.644 1762.99 838.69 1788.14 890.995C1788.39 891.505 1788.78 891.9 1789.24 892.156C1789.69 892.426 1790.22 892.564 1790.79 892.522C1848.66 888.157 1918.71 851.385 1963.36 792.411C2007.87 733.618 2027.17 652.695 1984.17 559.857C1984.18 559.723 1984.18 559.586 1984.17 559.447C1984.08 558.446 1983.45 557.623 1982.6 557.247C1981.84 556.692 1980.81 556.558 1979.91 556.986C1979.78 557.045 1979.66 557.113 1979.55 557.189C1877.65 566.369 1817.22 623.548 1788.56 691.492ZM1789.89 882.04C1790.62 883.757 1791.37 885.446 1792.15 887.109C1792.2 887.105 1792.25 887.1 1792.3 887.096C1791.47 885.43 1790.67 883.744 1789.89 882.04ZM1970.63 563.451C1973.57 563.09 1976.55 562.771 1979.57 562.494C1979.63 562.631 1979.69 562.768 1979.75 562.904C1976.68 563.031 1973.64 563.214 1970.63 563.451Z" fill="#87BC38"/>
<path fill-rule="evenodd" clip-rule="evenodd" d="M2140.3 822.153C2199.48 866.536 2276.94 882.577 2333.78 870.82C2334.33 870.705 2334.81 870.425 2335.17 870.04C2335.54 869.668 2335.81 869.181 2335.9 868.623C2345.67 811.41 2326.93 734.55 2280.51 676.963C2234.23 619.551 2160.38 581.243 2059.9 600.507C2059.77 600.465 2059.64 600.432 2059.5 600.41C2058.51 600.248 2057.56 600.66 2056.99 601.402C2056.27 602.001 2055.89 602.966 2056.08 603.95C2056.11 604.087 2056.15 604.219 2056.19 604.345C2040.45 705.44 2081.31 777.906 2140.3 822.153ZM2325.51 866.962C2327.36 866.667 2329.18 866.344 2330.98 865.992C2330.99 865.943 2330.99 865.894 2331 865.845C2329.18 866.247 2327.36 866.619 2325.51 866.962ZM2060.11 614.517C2060.47 611.575 2060.89 608.606 2061.35 605.612C2061.49 605.583 2061.64 605.555 2061.79 605.528C2061.17 608.544 2060.61 611.541 2060.11 614.517Z" fill="#87BC38"/>
<path fill-rule="evenodd" clip-rule="evenodd" d="M2351.26 645.749C2312.2 708.564 2302.97 787.135 2319.64 842.731C2319.8 843.273 2320.12 843.724 2320.54 844.048C2320.94 844.386 2321.45 844.606 2322.01 844.653C2379.86 849.395 2454.79 824.033 2508.12 772.77C2561.28 721.663 2593 644.757 2565.05 546.335C2565.08 546.204 2565.1 546.068 2565.11 545.93C2565.19 544.928 2564.7 544.017 2563.91 543.511C2563.25 542.844 2562.25 542.551 2561.29 542.832C2561.16 542.871 2561.03 542.92 2560.91 542.977C2458.82 536.103 2390.19 583.125 2351.26 645.749ZM2322.76 834.16C2323.22 835.969 2323.7 837.756 2324.2 839.519C2324.25 839.523 2324.3 839.526 2324.35 839.53C2323.79 837.755 2323.26 835.964 2322.76 834.16ZM2551.11 547.766C2554.08 547.87 2557.07 548.021 2560.09 548.22C2560.13 548.365 2560.18 548.509 2560.22 548.654C2557.16 548.298 2554.12 548.003 2551.11 547.766Z" fill="#87BC38"/>
<path fill-rule="evenodd" clip-rule="evenodd" d="M2586.02 638.622C2533.84 691.041 2507.17 765.522 2510.9 823.442C2510.94 824.007 2511.15 824.519 2511.48 824.928C2511.8 825.348 2512.24 825.677 2512.78 825.849C2568.08 843.482 2646.8 835.627 2710.29 797.673C2773.58 759.834 2821.79 692.036 2816.7 589.85C2816.76 589.728 2816.81 589.601 2816.85 589.468C2817.15 588.509 2816.88 587.51 2816.22 586.84C2815.73 586.042 2814.83 585.533 2813.82 585.59C2813.68 585.598 2813.55 585.616 2813.42 585.645C2715.5 555.983 2638.05 586.362 2586.02 638.622ZM2515.87 815.793C2515.91 817.658 2515.98 819.508 2516.07 821.34C2516.12 821.355 2516.17 821.369 2516.22 821.384C2516.07 819.528 2515.96 817.664 2515.87 815.793ZM2802.8 588.109C2805.66 588.876 2808.54 589.696 2811.45 590.57C2811.45 590.721 2811.46 590.871 2811.47 591.021C2808.57 589.986 2805.68 589.016 2802.8 588.109Z" fill="#87BC38"/>
<path fill-rule="evenodd" clip-rule="evenodd" d="M2763.23 732.41C2728.65 797.796 2724.93 876.819 2745.43 931.117C2745.63 931.647 2745.98 932.074 2746.42 932.369C2746.85 932.678 2747.37 932.862 2747.93 932.869C2805.97 933.565 2878.95 903.037 2928.57 848.179C2978.03 793.489 3004.32 714.557 2969.57 618.324C2969.59 618.191 2969.61 618.055 2969.61 617.915C2969.61 616.911 2969.05 616.036 2968.23 615.587C2967.53 614.968 2966.52 614.745 2965.57 615.093C2965.44 615.141 2965.32 615.198 2965.2 615.264C2862.89 615.527 2797.71 667.222 2763.23 732.41ZM2747.95 922.349C2748.53 924.122 2749.13 925.871 2749.76 927.595C2749.81 927.595 2749.86 927.595 2749.91 927.595C2749.23 925.863 2748.58 924.114 2747.95 922.349ZM2955.77 620.724C2958.73 620.621 2961.73 620.563 2964.76 620.55C2964.81 620.692 2964.86 620.834 2964.91 620.975C2961.83 620.833 2958.79 620.75 2955.77 620.724Z" fill="#87BC38"/>
<path fill-rule="evenodd" clip-rule="evenodd" d="M2870.22 852.411C2835.64 917.797 2831.91 996.82 2852.41 1051.12C2852.61 1051.65 2852.97 1052.08 2853.4 1052.37C2853.83 1052.68 2854.35 1052.86 2854.92 1052.87C2912.95 1053.57 2985.94 1023.04 3035.55 968.18C3085.02 913.49 3111.3 834.558 3076.56 738.325C3076.58 738.192 3076.59 738.056 3076.59 737.916C3076.59 736.912 3076.04 736.037 3075.22 735.588C3074.51 734.969 3073.5 734.746 3072.56 735.094C3072.43 735.142 3072.3 735.199 3072.18 735.265C2969.87 735.528 2904.69 787.223 2870.22 852.411ZM2854.93 1042.35C2855.51 1044.12 2856.12 1045.87 2856.74 1047.6C2856.79 1047.6 2856.84 1047.6 2856.89 1047.6C2856.21 1045.86 2855.56 1044.12 2854.93 1042.35ZM3062.75 740.725C3065.71 740.622 3068.71 740.564 3071.74 740.551C3071.79 740.693 3071.84 740.834 3071.89 740.976C3068.82 740.834 3065.77 740.751 3062.75 740.725Z" fill="#87BC38"/>
<path fill-rule="evenodd" clip-rule="evenodd" d="M2998.82 915.841C2933.59 950.713 2886.32 1014.14 2872.95 1070.62C2872.82 1071.17 2872.87 1071.73 2873.07 1072.21C2873.25 1072.71 2873.58 1073.15 2874.04 1073.47C2921.77 1106.5 2999.35 1122.01 3071.16 1104.27C3142.75 1086.59 3208.68 1035.85 3233.68 936.644C3233.78 936.546 3233.86 936.439 3233.94 936.324C3234.5 935.494 3234.53 934.458 3234.1 933.625C3233.87 932.718 3233.15 931.968 3232.18 931.729C3232.04 931.696 3231.91 931.674 3231.77 931.662C3146.8 874.669 3063.86 881.076 2998.82 915.841ZM2879.94 1064.76C2879.43 1066.56 2878.95 1068.34 2878.51 1070.12C2878.55 1070.15 2878.59 1070.18 2878.63 1070.21C2879.04 1068.39 2879.47 1066.58 2879.94 1064.76ZM3220.9 930.914C3223.41 932.485 3225.93 934.113 3228.45 935.797C3228.41 935.942 3228.37 936.088 3228.33 936.234C3225.86 934.396 3223.38 932.623 3220.9 930.914Z" fill="#87BC38"/>
<path fill-rule="evenodd" clip-rule="evenodd" d="M3015.93 1102.31C2945.14 1080.84 2866.86 1092.26 2817.47 1122.75C2816.99 1123.05 2816.64 1123.48 2816.43 1123.96C2816.21 1124.44 2816.13 1124.98 2816.23 1125.54C2826.62 1182.64 2870.51 1248.46 2933.83 1286.7C2996.95 1324.82 3079.45 1335.56 3167.29 1283.09C3167.42 1283.09 3167.56 1283.07 3167.69 1283.05C3168.68 1282.86 3169.43 1282.15 3169.72 1281.25C3170.19 1280.44 3170.22 1279.41 3169.7 1278.55C3169.62 1278.43 3169.54 1278.32 3169.46 1278.22C3149.68 1177.83 3086.49 1123.71 3015.93 1102.31ZM2826.56 1123.55C2824.93 1124.46 2823.33 1125.38 2821.76 1126.33C2821.77 1126.38 2821.77 1126.43 2821.78 1126.48C2823.35 1125.48 2824.95 1124.5 2826.56 1123.55ZM3162.3 1270C3162.96 1272.89 3163.59 1275.82 3164.18 1278.79C3164.05 1278.86 3163.92 1278.94 3163.79 1279.02C3163.35 1275.97 3162.85 1272.96 3162.3 1270Z" fill="#87BC38"/>
<path fill-rule="evenodd" clip-rule="evenodd" d="M2836.51 1209.32C2765.72 1187.85 2687.44 1199.27 2638.05 1229.76C2637.57 1230.06 2637.22 1230.48 2637.01 1230.97C2636.79 1231.44 2636.71 1231.99 2636.81 1232.55C2647.2 1289.65 2691.09 1355.47 2754.41 1393.71C2817.53 1431.83 2900.03 1442.57 2987.87 1390.1C2988 1390.09 2988.14 1390.08 2988.27 1390.05C2989.26 1389.86 2990.01 1389.15 2990.3 1388.26C2990.77 1387.45 2990.8 1386.41 2990.28 1385.56C2990.2 1385.44 2990.12 1385.33 2990.04 1385.22C2970.26 1284.84 2907.07 1230.72 2836.51 1209.32ZM2647.14 1230.56C2645.51 1231.46 2643.91 1232.39 2642.34 1233.34C2642.35 1233.39 2642.35 1233.43 2642.36 1233.48C2643.93 1232.48 2645.53 1231.51 2647.14 1230.56ZM2982.88 1377C2983.54 1379.89 2984.17 1382.82 2984.76 1385.79C2984.63 1385.87 2984.5 1385.95 2984.37 1386.03C2983.93 1382.98 2983.43 1379.97 2982.88 1377Z" fill="#87BC38"/>
<path fill-rule="evenodd" clip-rule="evenodd" d="M1990.06 908.622C2049.23 953.005 2126.7 969.045 2183.53 957.289C2184.09 957.174 2184.57 956.893 2184.92 956.509C2185.3 956.137 2185.56 955.65 2185.66 955.092C2195.42 897.879 2176.69 821.019 2130.27 763.432C2083.99 706.02 2010.14 667.712 1909.66 686.976C1909.53 686.934 1909.39 686.901 1909.26 686.879C1908.27 686.717 1907.31 687.129 1906.74 687.871C1906.02 688.469 1905.64 689.434 1905.84 690.419C1905.87 690.555 1905.9 690.687 1905.95 690.814C1890.2 791.908 1931.07 864.375 1990.06 908.622ZM2175.27 953.431C2177.11 953.136 2178.93 952.812 2180.73 952.461C2180.74 952.412 2180.75 952.363 2180.76 952.314C2178.94 952.715 2177.11 953.088 2175.27 953.431ZM1909.87 700.986C1910.23 698.043 1910.64 695.075 1911.1 692.08C1911.25 692.052 1911.4 692.024 1911.54 691.996C1910.92 695.013 1910.36 698.009 1909.87 700.986Z" fill="#87BC38"/>
<path fill-rule="evenodd" clip-rule="evenodd" d="M1008.76 1265.56C1045.02 1232.77 1065.2 1184.53 1064.74 1146.17C1064.74 1145.79 1064.61 1145.45 1064.41 1145.17C1064.21 1144.88 1063.93 1144.65 1063.58 1144.51C1027.69 1130.96 975.459 1133.42 932.24 1156.28C889.152 1179.07 854.982 1222.15 854.808 1289.78C854.765 1289.86 854.727 1289.94 854.695 1290.02C854.465 1290.65 854.612 1291.32 855.021 1291.78C855.319 1292.32 855.897 1292.69 856.561 1292.69C856.653 1292.69 856.743 1292.68 856.831 1292.67C920.439 1315.63 972.612 1298.26 1008.76 1265.56ZM1061.19 1151.04C1061.24 1149.81 1061.26 1148.59 1061.25 1147.38C1061.22 1147.36 1061.19 1147.35 1061.16 1147.34C1061.19 1148.57 1061.2 1149.81 1061.19 1151.04ZM863.925 1291.41C862.061 1290.8 860.187 1290.16 858.302 1289.48C858.303 1289.38 858.303 1289.29 858.304 1289.19C860.183 1289.97 862.057 1290.71 863.925 1291.41Z" fill="#A6C938"/>
<path fill-rule="evenodd" clip-rule="evenodd" d="M971.829 912.845C923.398 906.149 873.473 921.7 844.383 946.71C844.099 946.954 843.913 947.269 843.829 947.606C843.733 947.941 843.737 948.307 843.86 948.66C856.548 984.865 892.009 1023.29 937.299 1041.71C982.451 1060.07 1037.42 1058.55 1089.34 1015.22C1089.42 1015.2 1089.51 1015.18 1089.6 1015.14C1090.22 1014.92 1090.64 1014.38 1090.73 1013.76C1090.96 1013.19 1090.87 1012.51 1090.44 1012C1090.38 1011.93 1090.32 1011.87 1090.25 1011.81C1066.96 948.32 1020.11 919.52 971.829 912.845ZM850.398 946.291C849.428 947.052 848.478 947.823 847.549 948.603C847.56 948.634 847.572 948.665 847.583 948.696C848.505 947.881 849.443 947.08 850.398 946.291ZM1084.73 1007.18C1085.46 1009 1086.17 1010.85 1086.87 1012.73C1086.79 1012.79 1086.71 1012.86 1086.64 1012.92C1086.03 1010.98 1085.39 1009.06 1084.73 1007.18Z" fill="#A6C938"/>
<path fill-rule="evenodd" clip-rule="evenodd" d="M1131.15 715.595C1092.55 685.581 1041.54 674.086 1003.84 681.2C1003.48 681.27 1003.16 681.45 1002.92 681.699C1002.67 681.941 1002.49 682.26 1002.42 682.628C995.303 720.326 1006.8 771.337 1036.81 809.932C1066.73 848.408 1115.1 874.577 1181.73 863.005C1181.81 863.034 1181.9 863.057 1181.99 863.074C1182.64 863.192 1183.28 862.93 1183.66 862.447C1184.15 862.06 1184.41 861.426 1184.29 860.773C1184.27 860.683 1184.25 860.595 1184.22 860.511C1195.79 793.881 1169.62 745.518 1131.15 715.595ZM1009.26 683.845C1008.04 684.019 1006.83 684.212 1005.64 684.423C1005.63 684.455 1005.63 684.488 1005.62 684.52C1006.83 684.276 1008.04 684.051 1009.26 683.845ZM1181.75 853.743C1181.48 855.684 1181.17 857.641 1180.83 859.615C1180.73 859.632 1180.64 859.648 1180.54 859.665C1180.98 857.679 1181.39 855.705 1181.75 853.743Z" fill="#A6C938"/>
<path fill-rule="evenodd" clip-rule="evenodd" d="M1839.74 731.375C1825.34 684.652 1790.15 645.978 1755.19 630.182C1754.85 630.028 1754.48 629.993 1754.14 630.059C1753.8 630.114 1753.47 630.271 1753.2 630.533C1725.75 657.333 1705.91 705.712 1708.36 754.542C1710.8 803.223 1735.41 852.399 1796.62 881.138C1796.68 881.21 1796.73 881.279 1796.8 881.345C1797.27 881.816 1797.93 881.965 1798.53 881.791C1799.15 881.751 1799.72 881.382 1800 880.78C1800.04 880.696 1800.07 880.611 1800.1 880.525C1847.79 832.583 1854.1 777.956 1839.74 731.375ZM1758.11 635.457C1757.01 634.899 1755.91 634.364 1754.81 633.852C1754.79 633.875 1754.76 633.899 1754.74 633.922C1755.87 634.413 1756.99 634.925 1758.11 635.457ZM1801.95 873.564C1800.62 874.997 1799.24 876.425 1797.83 877.847C1797.74 877.804 1797.65 877.762 1797.56 877.719C1799.07 876.348 1800.53 874.962 1801.95 873.564Z" fill="#A6C938"/>
<path fill-rule="evenodd" clip-rule="evenodd" d="M2448.73 683.966C2419.9 644.476 2374.04 619.366 2335.84 615.814C2335.46 615.779 2335.11 615.864 2334.81 616.038C2334.5 616.201 2334.24 616.458 2334.07 616.792C2316.84 651.069 2313.83 703.273 2332.04 748.645C2350.2 793.879 2389.48 832.365 2456.72 839.607C2456.79 839.658 2456.87 839.705 2456.95 839.745C2457.55 840.039 2458.23 839.962 2458.73 839.604C2459.3 839.365 2459.73 838.829 2459.8 838.168C2459.81 838.077 2459.81 837.986 2459.8 837.897C2489.29 777.038 2477.47 723.335 2448.73 683.966ZM2340.32 619.85C2339.1 619.68 2337.88 619.533 2336.68 619.407C2336.66 619.436 2336.65 619.466 2336.63 619.495C2337.86 619.592 2339.09 619.711 2340.32 619.85ZM2459.29 830.71C2458.49 832.5 2457.66 834.297 2456.79 836.101C2456.69 836.09 2456.59 836.079 2456.49 836.068C2457.47 834.282 2458.4 832.496 2459.29 830.71Z" fill="#A6C938"/>
<path fill-rule="evenodd" clip-rule="evenodd" d="M2598.15 759.935C2626.8 720.317 2636.51 668.936 2628.08 631.509C2628 631.143 2627.81 630.831 2627.55 630.598C2627.3 630.357 2626.98 630.188 2626.61 630.132C2588.68 624.338 2538.1 637.606 2500.58 668.948C2463.17 700.196 2438.71 749.443 2452.6 815.628C2452.57 815.714 2452.55 815.802 2452.54 815.893C2452.44 816.55 2452.73 817.174 2453.22 817.544C2453.63 818.013 2454.27 818.252 2454.92 818.112C2455.01 818.092 2455.09 818.066 2455.18 818.034C2522.17 827.273 2569.59 799.433 2598.15 759.935ZM2625.63 637.016C2625.41 635.802 2625.18 634.602 2624.93 633.415C2624.89 633.411 2624.86 633.406 2624.83 633.402C2625.11 634.598 2625.38 635.803 2625.63 637.016ZM2461.85 815.327C2459.91 815.122 2457.94 814.885 2455.95 814.614C2455.93 814.517 2455.91 814.42 2455.89 814.322C2457.89 814.698 2459.88 815.033 2461.85 815.327Z" fill="#A6C938"/>
<path fill-rule="evenodd" clip-rule="evenodd" d="M3055.89 875.238C3080.24 832.843 3084.52 780.728 3072.23 744.387C3072.11 744.032 3071.89 743.742 3071.61 743.537C3071.33 743.323 3070.99 743.189 3070.62 743.172C3032.3 741.373 2983.38 759.856 2949.34 794.949C2915.4 829.935 2896.22 881.47 2916.95 945.841C2916.94 945.929 2916.93 946.019 2916.92 946.111C2916.9 946.774 2917.24 947.364 2917.78 947.681C2918.23 948.106 2918.89 948.276 2919.52 948.068C2919.61 948.039 2919.69 948.004 2919.77 947.964C2987.36 950.15 3031.61 917.505 3055.89 875.238ZM3070.37 750.121C3070.03 748.936 3069.67 747.766 3069.29 746.613C3069.26 746.612 3069.23 746.611 3069.19 746.61C3069.6 747.77 3069.99 748.94 3070.37 750.121ZM2926.13 944.574C2924.17 944.574 2922.19 944.544 2920.19 944.482C2920.16 944.387 2920.13 944.292 2920.1 944.198C2922.12 944.362 2924.14 944.488 2926.13 944.574Z" fill="#A6C938"/>
<path fill-rule="evenodd" clip-rule="evenodd" d="M2725.78 1283.56C2707.36 1238.27 2668.93 1202.81 2632.73 1190.12C2632.37 1190 2632.01 1189.99 2631.67 1190.09C2631.34 1190.17 2631.02 1190.36 2630.78 1190.64C2605.77 1219.73 2590.22 1269.66 2596.91 1318.09C2603.59 1366.37 2632.39 1413.21 2695.88 1436.51C2695.93 1436.58 2696 1436.64 2696.07 1436.7C2696.58 1437.13 2697.26 1437.22 2697.83 1436.99C2698.44 1436.9 2698.99 1436.48 2699.21 1435.86C2699.24 1435.77 2699.27 1435.68 2699.28 1435.6C2742.62 1383.68 2744.14 1328.71 2725.78 1283.56ZM2636.1 1195.12C2634.95 1194.66 2633.81 1194.22 2632.67 1193.81C2632.65 1193.83 2632.63 1193.86 2632.61 1193.88C2633.77 1194.27 2634.94 1194.69 2636.1 1195.12ZM2700.53 1428.5C2699.32 1430.04 2698.08 1431.58 2696.8 1433.12C2696.7 1433.09 2696.61 1433.06 2696.52 1433.02C2697.89 1431.52 2699.23 1430.02 2700.53 1428.5Z" fill="#A6C938"/>
<path fill-rule="evenodd" clip-rule="evenodd" d="M2723.75 1134.4C2676.78 1147.98 2637.49 1182.49 2621.09 1217.17C2620.93 1217.51 2620.89 1217.88 2620.95 1218.22C2621 1218.56 2621.15 1218.9 2621.41 1219.17C2647.72 1247.08 2695.75 1267.77 2744.62 1266.17C2793.33 1264.58 2842.93 1240.83 2872.73 1180.13C2872.81 1180.08 2872.88 1180.02 2872.94 1179.95C2873.42 1179.5 2873.58 1178.83 2873.42 1178.23C2873.39 1177.61 2873.03 1177.03 2872.43 1176.74C2872.35 1176.7 2872.27 1176.67 2872.18 1176.64C2825.08 1128.12 2770.57 1120.86 2723.75 1134.4ZM2626.42 1214.35C2625.84 1215.44 2625.29 1216.53 2624.75 1217.62C2624.78 1217.64 2624.8 1217.66 2624.82 1217.69C2625.33 1216.57 2625.87 1215.45 2626.42 1214.35ZM2865.25 1174.66C2866.66 1176.03 2868.07 1177.42 2869.46 1178.86C2869.42 1178.95 2869.37 1179.04 2869.33 1179.13C2867.99 1177.6 2866.63 1176.11 2865.25 1174.66Z" fill="#A6C938"/>
<path d="M1113.2 1027.7L2839.38 1129.84L2955.57 1202.26L2970.16 1467.08L2722.64 1668.12L2312.44 1632.99H1983.31L1113.2 1708.66L874.328 1382.77L1113.2 1027.7Z" fill="#87BC38"/>
<path fill-rule="evenodd" clip-rule="evenodd" d="M2927.02 1233.85C2873.04 1284.42 2843.79 1357.92 2845.5 1415.94C2845.51 1416.5 2845.71 1417.02 2846.02 1417.44C2846.33 1417.87 2846.76 1418.22 2847.29 1418.41C2901.94 1437.96 2980.88 1432.86 3045.66 1397.14C3110.23 1361.54 3160.78 1295.46 3159.26 1193.16C3159.32 1193.04 3159.38 1192.92 3159.43 1192.78C3159.76 1191.84 3159.52 1190.83 3158.89 1190.14C3158.42 1189.32 3157.54 1188.78 3156.53 1188.8C3156.39 1188.81 3156.26 1188.82 3156.12 1188.84C3059.3 1155.78 2980.84 1183.44 2927.02 1233.85ZM2850.73 1408.47C2850.7 1410.33 2850.7 1412.18 2850.74 1414.02C2850.78 1414.03 2850.83 1414.05 2850.88 1414.07C2850.8 1412.21 2850.75 1410.34 2850.73 1408.47ZM3145.43 1190.94C3148.26 1191.8 3151.11 1192.72 3153.98 1193.7C3153.99 1193.85 3153.99 1194 3153.99 1194.15C3151.13 1193.01 3148.27 1191.94 3145.43 1190.94Z" fill="#87BC38"/>
<path fill-rule="evenodd" clip-rule="evenodd" d="M2858.96 1075.86C2827.85 1142.97 2828.27 1222.08 2851.59 1275.23C2851.81 1275.75 2852.19 1276.15 2852.64 1276.43C2853.08 1276.71 2853.61 1276.87 2854.18 1276.85C2912.17 1274.5 2983.45 1240.2 3030.13 1182.82C3076.67 1125.61 3098.78 1045.41 3059.05 951.133C3059.06 950.998 3059.07 950.861 3059.06 950.722C3059.01 949.72 3058.41 948.875 3057.57 948.469C3056.83 947.888 3055.81 947.718 3054.89 948.114C3054.76 948.169 3054.64 948.233 3054.52 948.305C2952.36 953.923 2889.98 1008.96 2858.96 1075.86ZM2853.64 1266.34C2854.31 1268.08 2855.01 1269.79 2855.73 1271.48C2855.77 1271.48 2855.82 1271.48 2855.87 1271.48C2855.1 1269.78 2854.36 1268.07 2853.64 1266.34ZM3045.39 954.252C3048.34 953.994 3051.33 953.779 3054.36 953.608C3054.41 953.746 3054.47 953.885 3054.53 954.024C3051.45 954.043 3048.4 954.12 3045.39 954.252Z" fill="#87BC38"/>
<path fill-rule="evenodd" clip-rule="evenodd" d="M3042.09 1385.82C2970.06 1402.62 2907.97 1451.65 2880.45 1502.74C2880.18 1503.24 2880.08 1503.79 2880.15 1504.31C2880.19 1504.84 2880.4 1505.35 2880.76 1505.78C2918.31 1550.04 2989.23 1585.09 3063.19 1586.55C3136.92 1588 3213.73 1556.05 3263.56 1466.7C3263.68 1466.62 3263.79 1466.54 3263.89 1466.45C3264.65 1465.8 3264.95 1464.8 3264.75 1463.89C3264.75 1462.95 3264.26 1462.04 3263.38 1461.56C3263.26 1461.49 3263.13 1461.43 3263 1461.39C3195.68 1384.35 3113.9 1369.07 3042.09 1385.82ZM2888.71 1498.89C2887.76 1500.49 2886.83 1502.1 2885.94 1503.7C2885.98 1503.74 2886.01 1503.78 2886.04 1503.81C2886.9 1502.16 2887.79 1500.52 2888.71 1498.89ZM3252.69 1457.85C3254.72 1460.02 3256.73 1462.24 3258.72 1464.52C3258.65 1464.65 3258.58 1464.78 3258.5 1464.92C3256.59 1462.5 3254.65 1460.15 3252.69 1457.85Z" fill="#87BC38"/>
<path fill-rule="evenodd" clip-rule="evenodd" d="M2970.26 1513.22C2904.88 1478.64 2825.85 1474.92 2771.56 1495.42C2771.03 1495.62 2770.6 1495.97 2770.3 1496.41C2770 1496.83 2769.81 1497.36 2769.81 1497.92C2769.11 1555.96 2799.64 1628.94 2854.49 1678.56C2909.18 1728.02 2988.12 1754.31 3084.35 1719.56C3084.48 1719.58 3084.62 1719.59 3084.76 1719.59C3085.76 1719.6 3086.64 1719.04 3087.09 1718.22C3087.71 1717.52 3087.93 1716.51 3087.58 1715.56C3087.53 1715.43 3087.48 1715.31 3087.41 1715.19C3087.15 1612.88 3035.45 1547.7 2970.26 1513.22ZM2780.33 1497.94C2778.55 1498.52 2776.8 1499.12 2775.08 1499.75C2775.08 1499.8 2775.08 1499.85 2775.08 1499.9C2776.81 1499.22 2778.56 1498.56 2780.33 1497.94ZM3081.95 1705.76C3082.05 1708.72 3082.11 1711.72 3082.12 1714.75C3081.98 1714.8 3081.84 1714.85 3081.7 1714.9C3081.84 1711.82 3081.92 1708.77 3081.95 1705.76Z" fill="#87BC38"/>
<path fill-rule="evenodd" clip-rule="evenodd" d="M2893.3 1666.06C2861.89 1599.09 2801.03 1548.56 2745.32 1532.26C2744.78 1532.1 2744.22 1532.12 2743.73 1532.29C2743.22 1532.45 2742.76 1532.75 2742.42 1533.2C2706.93 1579.13 2687.39 1655.79 2701.34 1728.43C2715.25 1800.85 2762.47 1869.34 2860.24 1899.51C2860.33 1899.6 2860.43 1899.69 2860.54 1899.78C2861.34 1900.39 2862.38 1900.47 2863.23 1900.08C2864.15 1899.89 2864.94 1899.22 2865.22 1898.26C2865.26 1898.13 2865.29 1897.99 2865.31 1897.86C2926.67 1815.99 2924.62 1732.82 2893.3 1666.06ZM2750.81 1539.54C2749.04 1538.94 2747.28 1538.37 2745.53 1537.83C2745.5 1537.87 2745.47 1537.91 2745.44 1537.95C2747.23 1538.45 2749.02 1538.98 2750.81 1539.54ZM2866.63 1887.04C2864.93 1889.47 2863.17 1891.89 2861.36 1894.32C2861.21 1894.28 2861.07 1894.23 2860.93 1894.19C2862.89 1891.82 2864.79 1889.43 2866.63 1887.04Z" fill="#87BC38"/>
<path fill-rule="evenodd" clip-rule="evenodd" d="M2744.97 1759.96C2771.32 1690.84 2765.39 1611.96 2738.42 1560.56C2738.16 1560.06 2737.76 1559.68 2737.29 1559.44C2736.83 1559.18 2736.29 1559.06 2735.73 1559.13C2678.04 1565.51 2609.32 1604.7 2566.76 1665.2C2524.33 1725.51 2507.86 1807.06 2554.07 1898.34C2554.07 1898.47 2554.07 1898.61 2554.09 1898.75C2554.21 1899.74 2554.87 1900.55 2555.74 1900.89C2556.51 1901.42 2557.54 1901.52 2558.43 1901.06C2558.56 1900.99 2558.68 1900.92 2558.78 1900.84C2660.3 1888.11 2718.7 1828.86 2744.97 1759.96ZM2736.99 1569.57C2736.2 1567.88 2735.39 1566.22 2734.55 1564.58C2734.51 1564.59 2734.46 1564.6 2734.41 1564.6C2735.29 1566.24 2736.16 1567.89 2736.99 1569.57ZM2567.48 1894.27C2564.55 1894.74 2561.59 1895.16 2558.58 1895.54C2558.51 1895.41 2558.45 1895.27 2558.38 1895.14C2561.45 1894.9 2564.48 1894.62 2567.48 1894.27Z" fill="#87BC38"/>
<path fill-rule="evenodd" clip-rule="evenodd" d="M2470.38 1560.48C2396.95 1551.63 2321.84 1576.48 2278.49 1615.08C2278.07 1615.45 2277.8 1615.93 2277.68 1616.45C2277.54 1616.96 2277.56 1617.51 2277.76 1618.04C2297.9 1672.47 2352.56 1729.67 2421.55 1756.33C2490.34 1782.91 2573.45 1779.16 2650.84 1712.24C2650.97 1712.21 2651.1 1712.17 2651.23 1712.12C2652.17 1711.76 2652.79 1710.93 2652.91 1710C2653.24 1709.12 2653.08 1708.1 2652.42 1707.34C2652.33 1707.24 2652.23 1707.14 2652.13 1707.06C2615.22 1611.64 2543.6 1569.31 2470.38 1560.48ZM2287.58 1614.28C2286.13 1615.46 2284.72 1616.65 2283.33 1617.86C2283.35 1617.9 2283.37 1617.95 2283.39 1618C2284.76 1616.74 2286.16 1615.5 2287.58 1614.28ZM2643.65 1700.21C2644.81 1702.94 2645.93 1705.71 2647.03 1708.54C2646.92 1708.64 2646.8 1708.73 2646.69 1708.83C2645.72 1705.91 2644.71 1703.03 2643.65 1700.21Z" fill="#87BC38"/>
<path fill-rule="evenodd" clip-rule="evenodd" d="M2359.02 1631.23C2311.35 1574.67 2239.48 1541.62 2181.45 1540.29C2180.89 1540.27 2180.36 1540.44 2179.92 1540.73C2179.48 1541.01 2179.11 1541.43 2178.89 1541.95C2156.51 1595.5 2157.47 1674.6 2189.75 1741.16C2221.93 1807.51 2285.26 1861.45 2387.5 1865.28C2387.62 1865.35 2387.74 1865.41 2387.87 1865.46C2388.8 1865.84 2389.82 1865.66 2390.55 1865.06C2391.38 1864.64 2391.97 1863.79 2392 1862.78C2392 1862.64 2392 1862.51 2391.98 1862.37C2430.06 1767.41 2406.55 1687.61 2359.02 1631.23ZM2188.64 1545.9C2186.78 1545.78 2184.93 1545.68 2183.1 1545.62C2183.08 1545.67 2183.06 1545.71 2183.04 1545.76C2184.9 1545.77 2186.77 1545.82 2188.64 1545.9ZM2390.45 1851.58C2389.44 1854.37 2388.37 1857.17 2387.25 1859.98C2387.09 1859.97 2386.94 1859.97 2386.79 1859.96C2388.08 1857.16 2389.3 1854.37 2390.45 1851.58Z" fill="#87BC38"/>
<path fill-rule="evenodd" clip-rule="evenodd" d="M2257.39 1756.35C2230.73 1687.35 2173.53 1632.7 2119.1 1612.55C2118.57 1612.35 2118.02 1612.34 2117.51 1612.47C2117 1612.59 2116.51 1612.86 2116.14 1613.29C2077.54 1656.63 2052.7 1731.74 2061.55 1805.18C2070.37 1878.39 2112.7 1950.01 2208.12 1986.92C2208.21 1987.02 2208.3 1987.12 2208.41 1987.21C2209.16 1987.88 2210.18 1988.03 2211.06 1987.71C2211.99 1987.58 2212.83 1986.96 2213.18 1986.02C2213.23 1985.89 2213.27 1985.76 2213.3 1985.63C2280.22 1908.24 2283.97 1825.13 2257.39 1756.35ZM2124.07 1620.2C2122.35 1619.48 2120.63 1618.78 2118.92 1618.13C2118.89 1618.16 2118.85 1618.2 2118.82 1618.24C2120.57 1618.86 2122.32 1619.52 2124.07 1620.2ZM2215.36 1974.93C2213.5 1977.23 2211.58 1979.53 2209.6 1981.83C2209.46 1981.77 2209.32 1981.72 2209.18 1981.66C2211.3 1979.43 2213.36 1977.19 2215.36 1974.93Z" fill="#87BC38"/>
<path fill-rule="evenodd" clip-rule="evenodd" d="M2107.39 1719.19C2136.14 1651.04 2132.96 1571.99 2107.8 1519.69C2107.56 1519.18 2107.17 1518.78 2106.71 1518.53C2106.26 1518.26 2105.72 1518.12 2105.16 1518.16C2047.28 1522.53 1977.24 1559.3 1932.59 1618.27C1888.08 1677.07 1868.78 1757.99 1911.78 1850.83C1911.77 1850.96 1911.77 1851.1 1911.78 1851.24C1911.86 1852.24 1912.49 1853.06 1913.35 1853.44C1914.1 1853.99 1915.13 1854.13 1916.04 1853.7C1916.17 1853.64 1916.29 1853.57 1916.4 1853.49C2018.3 1844.31 2078.73 1787.14 2107.39 1719.19ZM2106.06 1528.64C2105.33 1526.93 2104.57 1525.24 2103.8 1523.57C2103.75 1523.58 2103.7 1523.58 2103.65 1523.59C2104.48 1525.25 2105.28 1526.94 2106.06 1528.64ZM1925.32 1847.23C1922.38 1847.59 1919.4 1847.91 1916.38 1848.19C1916.32 1848.05 1916.25 1847.92 1916.19 1847.78C1919.27 1847.65 1922.31 1847.47 1925.32 1847.23Z" fill="#87BC38"/>
<path fill-rule="evenodd" clip-rule="evenodd" d="M1755.64 1588.53C1696.47 1544.15 1619 1528.11 1562.17 1539.86C1561.61 1539.98 1561.13 1540.26 1560.77 1540.64C1560.4 1541.02 1560.14 1541.5 1560.04 1542.06C1550.28 1599.27 1569.01 1676.13 1615.43 1733.72C1661.71 1791.13 1735.56 1829.44 1836.04 1810.18C1836.17 1810.22 1836.31 1810.25 1836.44 1810.27C1837.43 1810.44 1838.38 1810.02 1838.96 1809.28C1839.68 1808.68 1840.06 1807.72 1839.86 1806.73C1839.83 1806.6 1839.8 1806.46 1839.75 1806.34C1855.5 1705.24 1814.63 1632.78 1755.64 1588.53ZM1570.43 1543.72C1568.59 1544.02 1566.77 1544.34 1564.97 1544.69C1564.96 1544.74 1564.95 1544.79 1564.94 1544.84C1566.76 1544.44 1568.59 1544.06 1570.43 1543.72ZM1835.83 1796.17C1835.47 1799.11 1835.06 1802.08 1834.6 1805.07C1834.45 1805.1 1834.3 1805.13 1834.16 1805.16C1834.78 1802.14 1835.34 1799.14 1835.83 1796.17Z" fill="#87BC38"/>
<path fill-rule="evenodd" clip-rule="evenodd" d="M1544.69 1764.93C1583.74 1702.12 1592.97 1623.55 1576.31 1567.95C1576.14 1567.41 1575.82 1566.96 1575.41 1566.64C1575.01 1566.3 1574.5 1566.08 1573.93 1566.03C1516.09 1561.29 1441.15 1586.65 1387.83 1637.91C1334.67 1689.02 1302.94 1765.93 1330.89 1864.35C1330.86 1864.48 1330.84 1864.62 1330.83 1864.75C1330.76 1865.76 1331.25 1866.67 1332.04 1867.17C1332.7 1867.84 1333.69 1868.13 1334.66 1867.85C1334.79 1867.81 1334.92 1867.76 1335.04 1867.71C1437.12 1874.58 1505.75 1827.56 1544.69 1764.93ZM1573.18 1576.52C1572.73 1574.71 1572.25 1572.93 1571.74 1571.16C1571.69 1571.16 1571.64 1571.16 1571.59 1571.15C1572.15 1572.93 1572.68 1574.72 1573.18 1576.52ZM1344.83 1862.92C1341.87 1862.81 1338.88 1862.66 1335.85 1862.46C1335.81 1862.32 1335.77 1862.17 1335.73 1862.03C1338.79 1862.39 1341.82 1862.68 1344.83 1862.92Z" fill="#87BC38"/>
<path fill-rule="evenodd" clip-rule="evenodd" d="M1309.92 1772.06C1362.11 1719.64 1388.77 1645.16 1385.04 1587.24C1385.01 1586.68 1384.79 1586.16 1384.46 1585.76C1384.15 1585.34 1383.7 1585.01 1383.16 1584.83C1327.87 1567.2 1249.15 1575.06 1185.66 1613.01C1122.36 1650.85 1074.15 1718.65 1079.24 1820.83C1079.18 1820.96 1079.13 1821.08 1079.09 1821.22C1078.79 1822.17 1079.07 1823.17 1079.72 1823.84C1080.22 1824.64 1081.12 1825.15 1082.12 1825.09C1082.26 1825.09 1082.4 1825.07 1082.53 1825.04C1180.45 1854.7 1257.9 1824.32 1309.92 1772.06ZM1380.07 1594.89C1380.04 1593.03 1379.97 1591.18 1379.87 1589.34C1379.82 1589.33 1379.78 1589.31 1379.73 1589.3C1379.87 1591.16 1379.99 1593.02 1380.07 1594.89ZM1093.15 1822.58C1090.28 1821.81 1087.4 1820.99 1084.5 1820.11C1084.49 1819.96 1084.49 1819.81 1084.48 1819.66C1087.38 1820.7 1090.27 1821.67 1093.15 1822.58Z" fill="#87BC38"/>
<path fill-rule="evenodd" clip-rule="evenodd" d="M1132.71 1678.27C1167.29 1612.89 1171.02 1533.86 1150.51 1479.57C1150.31 1479.04 1149.96 1478.61 1149.53 1478.31C1149.1 1478.01 1148.58 1477.82 1148.01 1477.81C1089.98 1477.12 1016.99 1507.65 967.376 1562.5C917.911 1617.19 891.627 1696.13 926.372 1792.36C926.351 1792.49 926.34 1792.63 926.339 1792.77C926.335 1793.77 926.89 1794.65 927.713 1795.1C928.416 1795.72 929.429 1795.94 930.371 1795.59C930.501 1795.54 930.626 1795.49 930.744 1795.42C1033.06 1795.16 1098.24 1743.46 1132.71 1678.27ZM1148 1488.33C1147.42 1486.56 1146.81 1484.81 1146.18 1483.09C1146.13 1483.09 1146.08 1483.09 1146.03 1483.09C1146.72 1484.82 1147.37 1486.57 1148 1488.33ZM940.177 1789.96C937.214 1790.06 934.218 1790.12 931.188 1790.13C931.137 1789.99 931.087 1789.85 931.036 1789.71C934.112 1789.85 937.16 1789.93 940.177 1789.96Z" fill="#87BC38"/>
<path fill-rule="evenodd" clip-rule="evenodd" d="M1025.73 1558.27C1060.31 1492.89 1064.03 1413.86 1043.53 1359.57C1043.33 1359.04 1042.98 1358.61 1042.54 1358.31C1042.12 1358.01 1041.6 1357.82 1041.03 1357.81C982.993 1357.12 910.01 1387.65 860.394 1442.5C810.928 1497.19 784.645 1576.13 819.39 1672.36C819.369 1672.49 819.357 1672.63 819.357 1672.77C819.352 1673.77 819.908 1674.65 820.73 1675.1C821.434 1675.71 822.446 1675.94 823.388 1675.59C823.519 1675.54 823.643 1675.48 823.761 1675.42C926.074 1675.16 991.256 1623.46 1025.73 1558.27ZM1041.01 1368.33C1040.43 1366.56 1039.83 1364.81 1039.2 1363.09C1039.15 1363.09 1039.1 1363.09 1039.05 1363.09C1039.73 1364.82 1040.39 1366.57 1041.01 1368.33ZM833.195 1669.96C830.232 1670.06 827.236 1670.12 824.206 1670.13C824.155 1669.99 824.104 1669.85 824.054 1669.71C827.13 1669.85 830.177 1669.93 833.195 1669.96Z" fill="#87BC38"/>
<path fill-rule="evenodd" clip-rule="evenodd" d="M897.122 1494.84C962.353 1459.97 1009.63 1396.54 1023 1340.06C1023.13 1339.51 1023.07 1338.96 1022.88 1338.47C1022.7 1337.98 1022.37 1337.53 1021.9 1337.21C974.176 1304.18 896.599 1288.68 824.789 1306.41C753.198 1324.09 687.27 1374.83 662.262 1474.04C662.17 1474.14 662.084 1474.24 662.006 1474.36C661.441 1475.19 661.412 1476.23 661.842 1477.06C662.08 1477.97 662.794 1478.72 663.77 1478.95C663.905 1478.99 664.04 1479.01 664.175 1479.02C749.143 1536.02 832.089 1529.61 897.122 1494.84ZM1016 1345.92C1016.52 1344.13 1016.99 1342.34 1017.44 1340.56C1017.39 1340.53 1017.35 1340.5 1017.31 1340.48C1016.91 1342.29 1016.47 1344.11 1016 1345.92ZM675.049 1479.77C672.535 1478.2 670.018 1476.57 667.499 1474.89C667.536 1474.74 667.574 1474.6 667.611 1474.45C670.082 1476.29 672.562 1478.06 675.049 1479.77Z" fill="#87BC38"/>
<path fill-rule="evenodd" clip-rule="evenodd" d="M880.02 1308.37C950.803 1329.84 1029.08 1318.42 1078.47 1287.93C1078.95 1287.64 1079.31 1287.21 1079.51 1286.72C1079.73 1286.25 1079.82 1285.7 1079.71 1285.14C1069.32 1228.04 1025.43 1162.22 962.115 1123.99C898.99 1085.86 816.494 1075.12 728.659 1127.59C728.524 1127.6 728.388 1127.61 728.251 1127.64C727.265 1127.83 726.512 1128.54 726.227 1129.43C725.754 1130.24 725.728 1131.28 726.249 1132.13C726.321 1132.25 726.401 1132.36 726.488 1132.47C746.269 1232.85 809.452 1286.97 880.02 1308.37ZM1069.39 1287.13C1071.02 1286.23 1072.62 1285.3 1074.19 1284.35C1074.18 1284.31 1074.17 1284.26 1074.16 1284.21C1072.59 1285.21 1071 1286.18 1069.39 1287.13ZM733.649 1140.69C732.982 1137.8 732.353 1134.87 731.763 1131.9C731.892 1131.82 732.021 1131.74 732.151 1131.67C732.598 1134.71 733.098 1137.72 733.649 1140.69Z" fill="#87BC38"/>
<path fill-rule="evenodd" clip-rule="evenodd" d="M1059.44 1201.37C1130.22 1222.83 1208.5 1211.41 1257.89 1180.93C1258.37 1180.63 1258.73 1180.2 1258.93 1179.72C1259.15 1179.24 1259.24 1178.69 1259.13 1178.14C1248.74 1121.03 1204.85 1055.22 1141.53 1016.98C1078.41 978.857 995.914 968.117 908.079 1020.59C907.944 1020.59 907.808 1020.61 907.671 1020.63C906.685 1020.82 905.932 1021.53 905.647 1022.42C905.174 1023.23 905.148 1024.27 905.669 1025.13C905.741 1025.25 905.821 1025.36 905.908 1025.46C925.689 1125.84 988.872 1179.96 1059.44 1201.37ZM1248.81 1180.13C1250.44 1179.22 1252.04 1178.29 1253.61 1177.35C1253.6 1177.3 1253.59 1177.25 1253.58 1177.2C1252.01 1178.2 1250.42 1179.18 1248.81 1180.13ZM913.069 1033.68C912.402 1030.79 911.773 1027.86 911.183 1024.89C911.312 1024.81 911.441 1024.74 911.57 1024.66C912.018 1027.71 912.518 1030.71 913.069 1033.68Z" fill="#87BC38"/>
<path fill-rule="evenodd" clip-rule="evenodd" d="M1905.89 1502.06C1846.72 1457.68 1769.25 1441.64 1712.41 1453.39C1711.86 1453.51 1711.38 1453.79 1711.02 1454.17C1710.65 1454.55 1710.39 1455.03 1710.29 1455.59C1700.52 1512.8 1719.26 1589.66 1765.68 1647.25C1811.96 1704.66 1885.81 1742.97 1986.29 1723.71C1986.42 1723.75 1986.55 1723.78 1986.69 1723.8C1987.68 1723.97 1988.63 1723.55 1989.2 1722.81C1989.92 1722.21 1990.3 1721.25 1990.11 1720.26C1990.08 1720.13 1990.04 1720 1990 1719.87C2005.74 1618.78 1964.88 1546.31 1905.89 1502.06ZM1720.68 1457.25C1718.84 1457.55 1717.01 1457.87 1715.21 1458.22C1715.2 1458.27 1715.2 1458.32 1715.19 1458.37C1717.01 1457.97 1718.84 1457.6 1720.68 1457.25ZM1986.08 1709.7C1985.72 1712.64 1985.31 1715.61 1984.84 1718.6C1984.7 1718.63 1984.55 1718.66 1984.4 1718.69C1985.02 1715.67 1985.58 1712.67 1986.08 1709.7Z" fill="#87BC38"/>
<path fill-rule="evenodd" clip-rule="evenodd" d="M2887.18 1145.12C2850.92 1177.92 2830.75 1226.16 2831.21 1264.52C2831.21 1264.89 2831.33 1265.24 2831.54 1265.52C2831.73 1265.81 2832.01 1266.04 2832.36 1266.17C2868.25 1279.72 2920.49 1277.26 2963.71 1254.4C3006.79 1231.62 3040.96 1188.53 3041.14 1120.91C3041.18 1120.83 3041.22 1120.75 3041.25 1120.66C3041.48 1120.04 3041.33 1119.37 3040.92 1118.9C3040.63 1118.36 3040.05 1117.99 3039.38 1117.99C3039.29 1117.99 3039.2 1118 3039.11 1118.02C2975.51 1095.05 2923.33 1112.42 2887.18 1145.12ZM2834.75 1259.64C2834.71 1260.87 2834.69 1262.1 2834.69 1263.31C2834.72 1263.32 2834.75 1263.33 2834.78 1263.34C2834.75 1262.11 2834.74 1260.88 2834.75 1259.64ZM3032.02 1119.28C3033.88 1119.88 3035.76 1120.52 3037.64 1121.2C3037.64 1121.3 3037.64 1121.4 3037.64 1121.5C3035.76 1120.71 3033.89 1119.97 3032.02 1119.28Z" fill="#A6C938"/>
<path fill-rule="evenodd" clip-rule="evenodd" d="M2924.12 1497.84C2972.55 1504.53 3022.47 1488.98 3051.56 1463.97C3051.85 1463.73 3052.03 1463.41 3052.12 1463.08C3052.21 1462.74 3052.21 1462.38 3052.08 1462.02C3039.4 1425.82 3003.94 1387.39 2958.65 1368.97C2913.49 1350.61 2858.53 1352.13 2806.61 1395.47C2806.52 1395.48 2806.43 1395.51 2806.35 1395.54C2805.72 1395.76 2805.3 1396.31 2805.21 1396.92C2804.99 1397.5 2805.08 1398.18 2805.5 1398.68C2805.56 1398.75 2805.63 1398.82 2805.7 1398.87C2828.99 1462.36 2875.83 1491.16 2924.12 1497.84ZM3045.55 1464.39C3046.52 1463.63 3047.47 1462.86 3048.4 1462.08C3048.38 1462.05 3048.37 1462.02 3048.36 1461.99C3047.44 1462.8 3046.5 1463.6 3045.55 1464.39ZM2811.22 1403.5C2810.49 1401.68 2809.77 1399.83 2809.08 1397.96C2809.16 1397.89 2809.23 1397.83 2809.31 1397.77C2809.92 1399.71 2810.55 1401.62 2811.22 1403.5Z" fill="#A6C938"/>
<path fill-rule="evenodd" clip-rule="evenodd" d="M2764.8 1695.09C2803.39 1725.1 2854.4 1736.6 2892.1 1729.48C2892.47 1729.41 2892.79 1729.23 2893.03 1728.98C2893.28 1728.74 2893.46 1728.42 2893.53 1728.06C2900.64 1690.36 2889.15 1639.35 2859.13 1600.75C2829.21 1562.28 2780.85 1536.11 2714.22 1547.68C2714.13 1547.65 2714.05 1547.63 2713.95 1547.61C2713.3 1547.49 2712.67 1547.75 2712.28 1548.24C2711.8 1548.62 2711.54 1549.26 2711.65 1549.91C2711.67 1550 2711.69 1550.09 2711.72 1550.17C2700.15 1616.8 2726.32 1665.17 2764.8 1695.09ZM2886.68 1726.84C2887.9 1726.66 2889.11 1726.47 2890.31 1726.26C2890.31 1726.23 2890.32 1726.2 2890.32 1726.16C2889.12 1726.41 2887.9 1726.63 2886.68 1726.84ZM2714.2 1556.94C2714.47 1555 2714.77 1553.04 2715.11 1551.07C2715.21 1551.05 2715.31 1551.04 2715.41 1551.02C2714.96 1553 2714.56 1554.98 2714.2 1556.94Z" fill="#A6C938"/>
<path fill-rule="evenodd" clip-rule="evenodd" d="M2056.2 1679.31C2070.6 1726.03 2105.8 1764.71 2140.76 1780.5C2141.1 1780.66 2141.46 1780.69 2141.8 1780.62C2142.15 1780.57 2142.48 1780.41 2142.75 1780.15C2170.2 1753.35 2190.04 1704.97 2187.59 1656.14C2185.15 1607.46 2160.54 1558.28 2099.32 1529.55C2099.27 1529.47 2099.21 1529.4 2099.15 1529.34C2098.68 1528.87 2098.01 1528.72 2097.42 1528.89C2096.8 1528.93 2096.22 1529.3 2095.94 1529.9C2095.9 1529.99 2095.87 1530.07 2095.85 1530.16C2048.15 1578.1 2041.85 1632.73 2056.2 1679.31ZM2137.84 1775.23C2138.94 1775.78 2140.04 1776.32 2141.13 1776.83C2141.16 1776.81 2141.18 1776.79 2141.2 1776.76C2140.08 1776.27 2138.95 1775.76 2137.84 1775.23ZM2093.99 1537.12C2095.33 1535.69 2096.7 1534.26 2098.11 1532.84C2098.2 1532.88 2098.29 1532.92 2098.38 1532.96C2096.88 1534.34 2095.41 1535.72 2093.99 1537.12Z" fill="#A6C938"/>
<path fill-rule="evenodd" clip-rule="evenodd" d="M1447.22 1726.72C1476.04 1766.21 1521.91 1791.32 1560.11 1794.87C1560.48 1794.9 1560.84 1794.82 1561.14 1794.65C1561.44 1794.48 1561.71 1794.23 1561.87 1793.89C1579.1 1759.61 1582.11 1707.41 1563.9 1662.04C1545.74 1616.8 1506.47 1578.32 1439.23 1571.08C1439.15 1571.03 1439.08 1570.98 1438.99 1570.94C1438.4 1570.64 1437.72 1570.72 1437.21 1571.08C1436.64 1571.32 1436.22 1571.86 1436.15 1572.52C1436.14 1572.61 1436.14 1572.7 1436.14 1572.79C1406.65 1633.65 1418.48 1687.35 1447.22 1726.72ZM1555.63 1790.83C1556.85 1791 1558.06 1791.15 1559.27 1791.28C1559.28 1791.25 1559.3 1791.22 1559.31 1791.19C1558.09 1791.09 1556.86 1790.97 1555.63 1790.83ZM1436.65 1579.97C1437.45 1578.18 1438.28 1576.39 1439.15 1574.58C1439.25 1574.59 1439.35 1574.6 1439.45 1574.62C1438.48 1576.4 1437.54 1578.19 1436.65 1579.97Z" fill="#A6C938"/>
<path fill-rule="evenodd" clip-rule="evenodd" d="M1297.79 1650.75C1269.14 1690.37 1259.44 1741.75 1267.86 1779.18C1267.94 1779.54 1268.14 1779.85 1268.39 1780.09C1268.64 1780.33 1268.97 1780.5 1269.34 1780.55C1307.26 1786.35 1357.84 1773.08 1395.36 1741.74C1432.77 1710.49 1457.24 1661.24 1443.35 1595.06C1443.37 1594.97 1443.39 1594.88 1443.41 1594.79C1443.5 1594.13 1443.22 1593.51 1442.72 1593.14C1442.32 1592.67 1441.68 1592.43 1441.03 1592.57C1440.94 1592.59 1440.85 1592.62 1440.77 1592.65C1373.78 1583.41 1326.35 1611.25 1297.79 1650.75ZM1270.32 1773.67C1270.53 1774.88 1270.77 1776.08 1271.02 1777.27C1271.05 1777.27 1271.09 1777.28 1271.12 1777.28C1270.83 1776.09 1270.56 1774.88 1270.32 1773.67ZM1434.09 1595.36C1436.04 1595.56 1438.01 1595.8 1439.99 1596.07C1440.01 1596.17 1440.03 1596.26 1440.05 1596.36C1438.05 1595.99 1436.06 1595.65 1434.09 1595.36Z" fill="#A6C938"/>
<path fill-rule="evenodd" clip-rule="evenodd" d="M840.055 1535.45C815.705 1577.84 811.421 1629.96 823.713 1666.3C823.833 1666.65 824.055 1666.94 824.336 1667.15C824.61 1667.36 824.951 1667.49 825.325 1667.51C863.646 1669.31 912.562 1650.83 946.603 1615.73C980.541 1580.75 999.724 1529.21 978.992 1464.84C979.009 1464.75 979.019 1464.66 979.023 1464.57C979.049 1463.91 978.702 1463.32 978.17 1463C977.719 1462.58 977.055 1462.41 976.425 1462.62C976.338 1462.64 976.254 1462.68 976.175 1462.72C908.583 1460.53 864.332 1493.18 840.055 1535.45ZM825.578 1660.56C825.92 1661.75 826.279 1662.92 826.654 1664.07C826.687 1664.07 826.72 1664.07 826.753 1664.07C826.343 1662.91 825.951 1661.74 825.578 1660.56ZM969.817 1466.11C971.777 1466.11 973.757 1466.14 975.759 1466.2C975.789 1466.3 975.82 1466.39 975.85 1466.49C973.821 1466.32 971.81 1466.2 969.817 1466.11Z" fill="#A6C938"/>
<path fill-rule="evenodd" clip-rule="evenodd" d="M1170.17 1127.13C1188.58 1172.42 1227.01 1207.88 1263.22 1220.56C1263.57 1220.69 1263.94 1220.69 1264.27 1220.6C1264.61 1220.51 1264.92 1220.33 1265.17 1220.04C1290.18 1190.95 1305.73 1141.03 1299.03 1092.6C1292.36 1044.31 1263.56 997.469 1200.07 974.175C1200.01 974.108 1199.95 974.044 1199.88 973.985C1199.37 973.556 1198.69 973.466 1198.11 973.691C1197.5 973.784 1196.96 974.202 1196.73 974.827C1196.7 974.913 1196.68 975.001 1196.66 975.088C1153.33 1027.01 1151.81 1081.97 1170.17 1127.13ZM1259.85 1215.56C1260.99 1216.02 1262.13 1216.46 1263.27 1216.88C1263.3 1216.85 1263.32 1216.83 1263.34 1216.8C1262.17 1216.41 1261.01 1216 1259.85 1215.56ZM1195.42 982.185C1196.63 980.641 1197.87 979.099 1199.15 977.56C1199.24 977.594 1199.34 977.628 1199.43 977.663C1198.05 979.161 1196.71 980.668 1195.42 982.185Z" fill="#A6C938"/>
<path fill-rule="evenodd" clip-rule="evenodd" d="M1172.2 1276.28C1219.17 1262.7 1258.45 1228.19 1274.85 1193.51C1275.01 1193.17 1275.06 1192.81 1275 1192.46C1274.95 1192.12 1274.79 1191.79 1274.54 1191.51C1248.22 1163.6 1200.2 1142.92 1151.33 1144.51C1102.61 1146.11 1053.02 1169.85 1023.21 1230.56C1023.14 1230.61 1023.07 1230.67 1023 1230.73C1022.52 1231.19 1022.36 1231.85 1022.53 1232.45C1022.56 1233.07 1022.91 1233.65 1023.51 1233.94C1023.59 1233.98 1023.68 1234.02 1023.76 1234.04C1070.87 1282.57 1125.38 1289.82 1172.2 1276.28ZM1269.53 1196.34C1270.11 1195.25 1270.66 1194.16 1271.19 1193.07C1271.17 1193.04 1271.15 1193.02 1271.12 1193C1270.61 1194.12 1270.08 1195.23 1269.53 1196.34ZM1030.69 1236.02C1029.28 1234.66 1027.88 1233.26 1026.48 1231.83C1026.53 1231.74 1026.57 1231.65 1026.61 1231.56C1027.96 1233.09 1029.32 1234.57 1030.69 1236.02Z" fill="#A6C938"/>
<rect x="1019.87" y="1249.99" width="1520.21" height="286.143" fill="#87BC38"/>
</svg>
