<svg width="2817" height="1407" viewBox="0 0 2817 1407" fill="none" xmlns="http://www.w3.org/2000/svg">
<path d="M1125.64 1162.08C1173.12 1184.26 1294.77 1215.31 1401.56 1162.08" stroke="#F8BC4E" stroke-width="41.2069" stroke-linecap="round" stroke-linejoin="round"/>
<path d="M2512.95 847.202L2598.56 878.041" stroke="#F8BC4E" stroke-width="41.2069" stroke-linecap="round" stroke-linejoin="round"/>
<ellipse cx="1425.5" cy="755.088" rx="1390.96" ry="651.259" fill="#F08328"/>
<mask id="mask0_2001_16" style="mask-type:alpha" maskUnits="userSpaceOnUse" x="34" y="103" width="2783" height="1304">
<ellipse cx="1425.5" cy="755.085" rx="1390.96" ry="651.259" fill="#EF8529"/>
</mask>
<g mask="url(#mask0_2001_16)">
<ellipse cx="1425.1" cy="479.161" rx="1210.4" ry="402.116" fill="#F8BC4E"/>
<path d="M1025.82 889.8L1203.55 851.658" stroke="#F08328" stroke-width="41.2069" stroke-linecap="round" stroke-linejoin="round"/>
</g>
<ellipse cx="1425.5" cy="450.76" rx="967.346" ry="217.086" fill="#EF8529"/>
<mask id="mask1_2001_16" style="mask-type:alpha" maskUnits="userSpaceOnUse" x="458" y="233" width="1935" height="435">
<ellipse cx="1425.51" cy="450.763" rx="967.346" ry="217.086" fill="black"/>
</mask>
<g mask="url(#mask1_2001_16)">
<ellipse cx="1425.51" cy="667.85" rx="979.519" ry="259.692" fill="#E9460F"/>
</g>
<path d="M896.388 566.405L776.281 645.936" stroke="#F8BC4E" stroke-width="41.2069" stroke-linecap="round" stroke-linejoin="round"/>
<path d="M676.461 478.354L722.718 695.034" stroke="#F8BC4E" stroke-width="41.2069" stroke-linecap="round" stroke-linejoin="round"/>
<path d="M304.773 233.677L389.984 334.307" stroke="#F8BC4E" stroke-width="41.2069" stroke-linecap="round" stroke-linejoin="round"/>
<path d="M800.218 106.668L753.555 230.427" stroke="#F8BC4E" stroke-width="41.2069" stroke-linecap="round" stroke-linejoin="round"/>
<path d="M1086.28 37.2842L1163.78 145.624" stroke="#F8BC4E" stroke-width="41.2069" stroke-linecap="round" stroke-linejoin="round"/>
<path d="M1318.38 733.583L1217.75 547.741" stroke="#F8BC4E" stroke-width="41.2069" stroke-linecap="round" stroke-linejoin="round"/>
<path d="M1651.11 602.116L1775.27 695.037" stroke="#F8BC4E" stroke-width="41.2069" stroke-linecap="round" stroke-linejoin="round"/>
<path d="M1906.74 578.579L1852.37 679.21" stroke="#F8BC4E" stroke-width="41.2069" stroke-linecap="round" stroke-linejoin="round"/>
<path d="M2177.38 516.904V632.954" stroke="#F8BC4E" stroke-width="41.2069" stroke-linecap="round" stroke-linejoin="round"/>
<path d="M2177.39 153.335L2099.88 199.593" stroke="#F8BC4E" stroke-width="41.2069" stroke-linecap="round" stroke-linejoin="round"/>
<path d="M2476.04 292.73L2439.09 375.076" stroke="#F8BC4E" stroke-width="41.2069" stroke-linecap="round" stroke-linejoin="round"/>
<path d="M1597.14 21.4609V122.091" stroke="#F8BC4E" stroke-width="41.2069" stroke-linecap="round" stroke-linejoin="round"/>
<path d="M350.329 458.474C327.335 489.177 318.354 565.678 466.378 626.056" stroke="#F08328" stroke-width="41.2069" stroke-linecap="round" stroke-linejoin="round"/>
<path d="M379.445 555.047L441.528 545.308" stroke="#F08328" stroke-width="41.2069" stroke-linecap="round" stroke-linejoin="round"/>
<path d="M777.09 731.959C821.183 747.378 930.551 778.217 1015.27 778.217" stroke="#F08328" stroke-width="41.2069" stroke-linecap="round" stroke-linejoin="round"/>
<path d="M809.957 675.154L868.387 741.7" stroke="#F08328" stroke-width="41.2069" stroke-linecap="round" stroke-linejoin="round"/>
<path d="M1468.51 787.776C1512.68 785.462 1610.98 780.31 1650.86 778.22" stroke="#F08328" stroke-width="41.2069" stroke-linecap="round" stroke-linejoin="round"/>
<path d="M1914.04 749.408C1990.6 749.408 2176.09 728.552 2305.61 645.126" stroke="#F08328" stroke-width="41.2069" stroke-linecap="round" stroke-linejoin="round"/>
<path d="M1985.46 687.329L2067.42 722.631" stroke="#F08328" stroke-width="41.2069" stroke-linecap="round" stroke-linejoin="round"/>
<path d="M2206.59 634.575L2138.83 712.888" stroke="#F08328" stroke-width="41.2069" stroke-linecap="round" stroke-linejoin="round"/>
<path d="M2496.72 436.561C2524.85 459.419 2564.24 512.52 2496.72 542.06" stroke="#F08328" stroke-width="41.2069" stroke-linecap="round" stroke-linejoin="round"/>
<path d="M526.729 733.582L561.219 791.201" stroke="#F08328" stroke-width="41.2069" stroke-linecap="round" stroke-linejoin="round"/>
<path d="M1435.64 865.459L1511.11 921.049" stroke="#F08328" stroke-width="41.2069" stroke-linecap="round" stroke-linejoin="round"/>
<path d="M2422.46 631.737L2374.99 774.162" stroke="#F08328" stroke-width="41.2069" stroke-linecap="round" stroke-linejoin="round"/>
<path d="M2697.98 380.16V516.904" stroke="#F08328" stroke-width="41.2069" stroke-linecap="round" stroke-linejoin="round"/>
<path d="M21.5527 550.984L98.2425 662.165" stroke="#F08328" stroke-width="41.2069" stroke-linecap="round" stroke-linejoin="round"/>
<path d="M157.08 678.806C196.034 741.565 327.177 859.291 462.216 880.067" stroke="#F8BC4E" stroke-width="41.2069" stroke-linecap="round" stroke-linejoin="round"/>
<path d="M652.107 978.266C708.103 998.825 852.069 1042.95 979.966 1054.96" stroke="#F8BC4E" stroke-width="41.2069" stroke-linecap="round" stroke-linejoin="round"/>
<path d="M879.752 927.949L909.373 1025.74" stroke="#F8BC4E" stroke-width="41.2069" stroke-linecap="round" stroke-linejoin="round"/>
<path d="M1188.53 1025.74C1236 1042.37 1359.36 1065.67 1472.97 1025.74" stroke="#F8BC4E" stroke-width="41.2069" stroke-linecap="round" stroke-linejoin="round"/>
<path d="M1810.16 974.613C1841.14 972.178 1927.76 959.518 2026.44 928.355" stroke="#F8BC4E" stroke-width="41.2069" stroke-linecap="round" stroke-linejoin="round"/>
<path d="M2374.99 951.892C2346.72 982.73 2256.18 1050.57 2120.17 1075.25" stroke="#F8BC4E" stroke-width="41.2069" stroke-linecap="round" stroke-linejoin="round"/>
<path d="M2537.3 932.818C2575.71 922.674 2661.87 882.259 2699.2 801.755" stroke="#F8BC4E" stroke-width="41.2069" stroke-linecap="round" stroke-linejoin="round"/>
<path d="M2526.34 840.306L2632.65 878.042V792.02" stroke="#F8BC4E" stroke-width="41.2069" stroke-linecap="round" stroke-linejoin="round"/>
</svg>
